<?xml version="1.0" standalone="no"?>
<mlt LC_NUMERIC="C" version="7.23.0" title="Shotcut version 24.01.28" producer="main_bin">
  <profile description="PAL 4:3 DV or DVD" width="1920" height="1080" progressive="1" sample_aspect_num="1" sample_aspect_den="1" display_aspect_num="16" display_aspect_den="9" frame_rate_num="24" frame_rate_den="1" colorspace="709"/>
  <playlist id="main_bin">
    <property name="xml_retain">1</property>
  </playlist>
  <producer id="black" in="00:00:00.000" out="00:20:15.750">
    <property name="length">00:20:15.792</property>
    <property name="eof">pause</property>
    <property name="resource">0</property>
    <property name="aspect_ratio">1</property>
    <property name="mlt_service">color</property>
    <property name="mlt_image_format">rgba</property>
    <property name="set.test_audio">0</property>
  </producer>
  <playlist id="background">
    <entry producer="black" in="00:00:00.000" out="00:20:15.750"/>
  </playlist>
  <chain id="chain0" out="00:00:15.750">
    <property name="length">00:00:15.792</property>
    <property name="eof">pause</property>
    <property name="resource">D:/projects/unreal_engine_5/PlantsVsZombies/Main_menu_vids/1.mp4</property>
    <property name="mlt_service">avformat-novalidate</property>
    <property name="meta.media.nb_streams">2</property>
    <property name="meta.media.0.stream.type">video</property>
    <property name="meta.media.0.stream.frame_rate">29.9364</property>
    <property name="meta.media.0.stream.sample_aspect_ratio">0</property>
    <property name="meta.media.0.codec.width">480</property>
    <property name="meta.media.0.codec.height">848</property>
    <property name="meta.media.0.codec.rotate">270</property>
    <property name="meta.media.0.codec.pix_fmt">yuv420p</property>
    <property name="meta.media.0.codec.sample_aspect_ratio">0</property>
    <property name="meta.media.0.codec.colorspace">709</property>
    <property name="meta.media.0.codec.color_trc">1</property>
    <property name="meta.media.0.codec.name">h264</property>
    <property name="meta.media.0.codec.long_name">H.264 / AVC / MPEG-4 AVC / MPEG-4 part 10</property>
    <property name="meta.media.0.codec.bit_rate">1487494</property>
    <property name="meta.attr.0.stream.vendor_id.markup">[0][0][0][0]</property>
    <property name="meta.media.1.stream.type">audio</property>
    <property name="meta.media.1.codec.sample_fmt">fltp</property>
    <property name="meta.media.1.codec.sample_rate">44100</property>
    <property name="meta.media.1.codec.channels">2</property>
    <property name="meta.media.1.codec.name">aac</property>
    <property name="meta.media.1.codec.long_name">AAC (Advanced Audio Coding)</property>
    <property name="meta.media.1.codec.bit_rate">63002</property>
    <property name="meta.attr.1.stream.vendor_id.markup">[0][0][0][0]</property>
    <property name="meta.attr.major_brand.markup">mp42</property>
    <property name="meta.attr.minor_version.markup">0</property>
    <property name="meta.attr.compatible_brands.markup">mp42isom</property>
    <property name="seekable">1</property>
    <property name="meta.media.sample_aspect_num">1</property>
    <property name="meta.media.sample_aspect_den">1</property>
    <property name="audio_index">1</property>
    <property name="video_index">0</property>
    <property name="creation_time">2025-03-30T14:43:16</property>
    <property name="vstream">0</property>
    <property name="meta.media.frame_rate_num">7065</property>
    <property name="meta.media.frame_rate_den">236</property>
    <property name="meta.media.colorspace">709</property>
    <property name="meta.media.color_trc">1</property>
    <property name="meta.media.has_b_frames">0</property>
    <property name="meta.media.width">848</property>
    <property name="meta.media.height">480</property>
    <property name="meta.media.color_range">mpeg</property>
    <property name="astream">0</property>
    <property name="shotcut:hash">e8220d6ffcac8cc297721df387f0f7ed</property>
    <property name="meta.media.top_field_first">0</property>
    <property name="meta.media.progressive">1</property>
    <property name="xml">was here</property>
    <property name="shotcut:caption">1.mp4</property>
  </chain>
  <chain id="chain1" out="00:00:04.917">
    <property name="length">00:00:04.958</property>
    <property name="eof">pause</property>
    <property name="resource">D:/projects/unreal_engine_5/PlantsVsZombies/Main_menu_vids/2.mp4</property>
    <property name="mlt_service">avformat-novalidate</property>
    <property name="meta.media.nb_streams">2</property>
    <property name="meta.media.0.stream.type">video</property>
    <property name="meta.media.0.stream.frame_rate">51.7461</property>
    <property name="meta.media.0.stream.sample_aspect_ratio">0</property>
    <property name="meta.media.0.codec.width">848</property>
    <property name="meta.media.0.codec.height">478</property>
    <property name="meta.media.0.codec.rotate">0</property>
    <property name="meta.media.0.codec.pix_fmt">yuv420p</property>
    <property name="meta.media.0.codec.sample_aspect_ratio">0</property>
    <property name="meta.media.0.codec.colorspace">601</property>
    <property name="meta.media.0.codec.color_trc">6</property>
    <property name="meta.media.0.codec.name">h264</property>
    <property name="meta.media.0.codec.long_name">H.264 / AVC / MPEG-4 AVC / MPEG-4 part 10</property>
    <property name="meta.media.0.codec.bit_rate">1471655</property>
    <property name="meta.attr.0.stream.vendor_id.markup">[0][0][0][0]</property>
    <property name="meta.media.1.stream.type">audio</property>
    <property name="meta.media.1.codec.sample_fmt">fltp</property>
    <property name="meta.media.1.codec.sample_rate">48000</property>
    <property name="meta.media.1.codec.channels">2</property>
    <property name="meta.media.1.codec.name">aac</property>
    <property name="meta.media.1.codec.long_name">AAC (Advanced Audio Coding)</property>
    <property name="meta.media.1.codec.bit_rate">256558</property>
    <property name="meta.attr.1.stream.vendor_id.markup">[0][0][0][0]</property>
    <property name="meta.attr.major_brand.markup">mp42</property>
    <property name="meta.attr.minor_version.markup">0</property>
    <property name="meta.attr.compatible_brands.markup">mp42isom</property>
    <property name="seekable">1</property>
    <property name="meta.media.sample_aspect_num">1</property>
    <property name="meta.media.sample_aspect_den">1</property>
    <property name="audio_index">1</property>
    <property name="video_index">0</property>
    <property name="creation_time">2025-03-30T15:11:10</property>
    <property name="vstream">0</property>
    <property name="meta.media.frame_rate_num">7680000</property>
    <property name="meta.media.frame_rate_den">148417</property>
    <property name="meta.media.colorspace">601</property>
    <property name="meta.media.color_trc">6</property>
    <property name="meta.media.has_b_frames">0</property>
    <property name="meta.media.width">848</property>
    <property name="meta.media.height">478</property>
    <property name="meta.media.aspect_ratio">1</property>
    <property name="meta.media.color_range">mpeg</property>
    <property name="astream">0</property>
    <property name="shotcut:hash">3cad03de8ccd3b1c4a4770acb67621a2</property>
    <property name="xml">was here</property>
    <property name="meta.media.variable_frame_rate">1</property>
    <property name="meta.media.top_field_first">0</property>
    <property name="meta.media.progressive">1</property>
    <property name="shotcut:caption">2.mp4</property>
  </chain>
  <tractor id="tractor0" in="00:00:00.000" out="00:00:00.375">
    <property name="shotcut:transition">lumaMix</property>
    <track producer="chain0" in="00:00:15.375" out="00:00:15.750"/>
    <track producer="chain1" in="00:00:00.000" out="00:00:00.375"/>
    <transition id="transition0" out="00:00:00.375">
      <property name="a_track">0</property>
      <property name="b_track">1</property>
      <property name="factory">loader</property>
      <property name="mlt_service">luma</property>
      <property name="alpha_over">1</property>
      <property name="fix_background_alpha">1</property>
    </transition>
    <transition id="transition1" out="00:00:00.375">
      <property name="a_track">0</property>
      <property name="b_track">1</property>
      <property name="mlt_service">mix</property>
      <property name="start">-1</property>
      <property name="accepts_blanks">1</property>
    </transition>
  </tractor>
  <chain id="chain2" out="00:00:17.750">
    <property name="length">00:00:17.792</property>
    <property name="eof">pause</property>
    <property name="resource">D:/projects/unreal_engine_5/PlantsVsZombies/Main_menu_vids/3.mp4</property>
    <property name="mlt_service">avformat-novalidate</property>
    <property name="meta.media.nb_streams">2</property>
    <property name="meta.media.0.stream.type">video</property>
    <property name="meta.media.0.stream.frame_rate">29.9436</property>
    <property name="meta.media.0.stream.sample_aspect_ratio">0</property>
    <property name="meta.media.0.codec.width">848</property>
    <property name="meta.media.0.codec.height">480</property>
    <property name="meta.media.0.codec.rotate">0</property>
    <property name="meta.media.0.codec.pix_fmt">yuv420p</property>
    <property name="meta.media.0.codec.sample_aspect_ratio">0</property>
    <property name="meta.media.0.codec.colorspace">601</property>
    <property name="meta.media.0.codec.color_trc">6</property>
    <property name="meta.media.0.codec.name">h264</property>
    <property name="meta.media.0.codec.long_name">H.264 / AVC / MPEG-4 AVC / MPEG-4 part 10</property>
    <property name="meta.media.0.codec.bit_rate">1083196</property>
    <property name="meta.attr.0.stream.vendor_id.markup">[0][0][0][0]</property>
    <property name="meta.media.1.stream.type">audio</property>
    <property name="meta.media.1.codec.sample_fmt">fltp</property>
    <property name="meta.media.1.codec.sample_rate">44100</property>
    <property name="meta.media.1.codec.channels">2</property>
    <property name="meta.media.1.codec.name">aac</property>
    <property name="meta.media.1.codec.long_name">AAC (Advanced Audio Coding)</property>
    <property name="meta.media.1.codec.bit_rate">62918</property>
    <property name="meta.attr.1.stream.vendor_id.markup">[0][0][0][0]</property>
    <property name="meta.attr.major_brand.markup">mp42</property>
    <property name="meta.attr.minor_version.markup">0</property>
    <property name="meta.attr.compatible_brands.markup">mp42isom</property>
    <property name="seekable">1</property>
    <property name="meta.media.sample_aspect_num">1</property>
    <property name="meta.media.sample_aspect_den">1</property>
    <property name="audio_index">1</property>
    <property name="video_index">0</property>
    <property name="creation_time">2025-03-30T15:11:10</property>
    <property name="vstream">0</property>
    <property name="meta.media.frame_rate_num">7965</property>
    <property name="meta.media.frame_rate_den">266</property>
    <property name="meta.media.colorspace">601</property>
    <property name="meta.media.color_trc">6</property>
    <property name="meta.media.has_b_frames">0</property>
    <property name="meta.media.width">848</property>
    <property name="meta.media.height">480</property>
    <property name="meta.media.aspect_ratio">1</property>
    <property name="meta.media.color_range">mpeg</property>
    <property name="astream">0</property>
    <property name="shotcut:hash">10e24307113561b293db2bca65c34d1a</property>
    <property name="xml">was here</property>
    <property name="meta.media.top_field_first">0</property>
    <property name="meta.media.progressive">1</property>
    <property name="shotcut:caption">3.mp4</property>
  </chain>
  <tractor id="tractor1" in="00:00:00.000" out="00:00:00.375">
    <property name="shotcut:transition">lumaMix</property>
    <track producer="chain1" in="00:00:04.542" out="00:00:04.917"/>
    <track producer="chain2" in="00:00:00.000" out="00:00:00.375"/>
    <transition id="transition2" out="00:00:00.375">
      <property name="a_track">0</property>
      <property name="b_track">1</property>
      <property name="factory">loader</property>
      <property name="mlt_service">luma</property>
      <property name="alpha_over">1</property>
      <property name="fix_background_alpha">1</property>
    </transition>
    <transition id="transition3" out="00:00:00.375">
      <property name="a_track">0</property>
      <property name="b_track">1</property>
      <property name="mlt_service">mix</property>
      <property name="start">-1</property>
      <property name="accepts_blanks">1</property>
    </transition>
  </tractor>
  <chain id="chain3" out="00:00:43.000">
    <property name="length">00:00:43.042</property>
    <property name="eof">pause</property>
    <property name="resource">D:/projects/unreal_engine_5/PlantsVsZombies/Main_menu_vids/4.mp4</property>
    <property name="mlt_service">avformat-novalidate</property>
    <property name="meta.media.nb_streams">2</property>
    <property name="meta.media.0.stream.type">video</property>
    <property name="meta.media.0.stream.frame_rate">29.9767</property>
    <property name="meta.media.0.stream.sample_aspect_ratio">0</property>
    <property name="meta.media.0.codec.width">848</property>
    <property name="meta.media.0.codec.height">480</property>
    <property name="meta.media.0.codec.rotate">0</property>
    <property name="meta.media.0.codec.pix_fmt">yuv420p</property>
    <property name="meta.media.0.codec.sample_aspect_ratio">0</property>
    <property name="meta.media.0.codec.colorspace">709</property>
    <property name="meta.media.0.codec.color_trc">1</property>
    <property name="meta.media.0.codec.name">h264</property>
    <property name="meta.media.0.codec.long_name">H.264 / AVC / MPEG-4 AVC / MPEG-4 part 10</property>
    <property name="meta.media.0.codec.bit_rate">1448230</property>
    <property name="meta.attr.0.stream.vendor_id.markup">[0][0][0][0]</property>
    <property name="meta.media.1.stream.type">audio</property>
    <property name="meta.media.1.codec.sample_fmt">fltp</property>
    <property name="meta.media.1.codec.sample_rate">44100</property>
    <property name="meta.media.1.codec.channels">2</property>
    <property name="meta.media.1.codec.name">aac</property>
    <property name="meta.media.1.codec.long_name">AAC (Advanced Audio Coding)</property>
    <property name="meta.media.1.codec.bit_rate">64460</property>
    <property name="meta.attr.1.stream.vendor_id.markup">[0][0][0][0]</property>
    <property name="meta.attr.major_brand.markup">mp42</property>
    <property name="meta.attr.minor_version.markup">0</property>
    <property name="meta.attr.compatible_brands.markup">mp42isom</property>
    <property name="seekable">1</property>
    <property name="meta.media.sample_aspect_num">1</property>
    <property name="meta.media.sample_aspect_den">1</property>
    <property name="audio_index">1</property>
    <property name="video_index">0</property>
    <property name="creation_time">2025-03-30T14:43:16</property>
    <property name="vstream">0</property>
    <property name="meta.media.frame_rate_num">1289</property>
    <property name="meta.media.frame_rate_den">43</property>
    <property name="meta.media.colorspace">709</property>
    <property name="meta.media.color_trc">1</property>
    <property name="meta.media.has_b_frames">0</property>
    <property name="meta.media.width">848</property>
    <property name="meta.media.height">480</property>
    <property name="meta.media.aspect_ratio">1</property>
    <property name="meta.media.color_range">mpeg</property>
    <property name="astream">0</property>
    <property name="shotcut:hash">f4336c99d2a0245c1bded3738ab7a944</property>
    <property name="xml">was here</property>
    <property name="meta.media.top_field_first">0</property>
    <property name="meta.media.progressive">1</property>
    <property name="shotcut:caption">4.mp4</property>
  </chain>
  <tractor id="tractor2" in="00:00:00.000" out="00:00:00.458">
    <property name="shotcut:transition">lumaMix</property>
    <track producer="chain2" in="00:00:17.292" out="00:00:17.750"/>
    <track producer="chain3" in="00:00:00.000" out="00:00:00.458"/>
    <transition id="transition4" out="00:00:00.458">
      <property name="a_track">0</property>
      <property name="b_track">1</property>
      <property name="factory">loader</property>
      <property name="mlt_service">luma</property>
      <property name="alpha_over">1</property>
      <property name="fix_background_alpha">1</property>
    </transition>
    <transition id="transition5" out="00:00:00.458">
      <property name="a_track">0</property>
      <property name="b_track">1</property>
      <property name="mlt_service">mix</property>
      <property name="start">-1</property>
      <property name="accepts_blanks">1</property>
    </transition>
  </tractor>
  <chain id="chain4" out="00:00:27.333">
    <property name="length">00:00:27.375</property>
    <property name="eof">pause</property>
    <property name="resource">D:/projects/unreal_engine_5/PlantsVsZombies/Main_menu_vids/5.mp4</property>
    <property name="mlt_service">avformat-novalidate</property>
    <property name="meta.media.nb_streams">2</property>
    <property name="meta.media.0.stream.type">video</property>
    <property name="meta.media.0.stream.frame_rate">29.9984</property>
    <property name="meta.media.0.stream.sample_aspect_ratio">0</property>
    <property name="meta.media.0.codec.width">848</property>
    <property name="meta.media.0.codec.height">392</property>
    <property name="meta.media.0.codec.rotate">0</property>
    <property name="meta.media.0.codec.pix_fmt">yuv420p</property>
    <property name="meta.media.0.codec.sample_aspect_ratio">0</property>
    <property name="meta.media.0.codec.colorspace">709</property>
    <property name="meta.media.0.codec.color_trc">1</property>
    <property name="meta.media.0.codec.name">h264</property>
    <property name="meta.media.0.codec.long_name">H.264 / AVC / MPEG-4 AVC / MPEG-4 part 10</property>
    <property name="meta.media.0.codec.bit_rate">1273901</property>
    <property name="meta.attr.0.stream.vendor_id.markup">[0][0][0][0]</property>
    <property name="meta.media.1.stream.type">audio</property>
    <property name="meta.media.1.codec.sample_fmt">fltp</property>
    <property name="meta.media.1.codec.sample_rate">48000</property>
    <property name="meta.media.1.codec.channels">2</property>
    <property name="meta.media.1.codec.name">aac</property>
    <property name="meta.media.1.codec.long_name">AAC (Advanced Audio Coding)</property>
    <property name="meta.media.1.codec.bit_rate">256012</property>
    <property name="meta.attr.1.stream.vendor_id.markup">[0][0][0][0]</property>
    <property name="meta.attr.major_brand.markup">mp42</property>
    <property name="meta.attr.minor_version.markup">0</property>
    <property name="meta.attr.compatible_brands.markup">mp42isom</property>
    <property name="seekable">1</property>
    <property name="meta.media.sample_aspect_num">1</property>
    <property name="meta.media.sample_aspect_den">1</property>
    <property name="audio_index">1</property>
    <property name="video_index">0</property>
    <property name="creation_time">2025-03-30T14:50:25</property>
    <property name="vstream">0</property>
    <property name="meta.media.frame_rate_num">4926000</property>
    <property name="meta.media.frame_rate_den">164209</property>
    <property name="meta.media.colorspace">709</property>
    <property name="meta.media.color_trc">1</property>
    <property name="meta.media.has_b_frames">0</property>
    <property name="meta.media.width">848</property>
    <property name="meta.media.height">392</property>
    <property name="meta.media.aspect_ratio">1</property>
    <property name="meta.media.color_range">mpeg</property>
    <property name="astream">0</property>
    <property name="shotcut:hash">16c6f74f023dc20239b7766f3ac44ca4</property>
    <property name="xml">was here</property>
    <property name="meta.media.variable_frame_rate">1</property>
    <property name="meta.media.top_field_first">0</property>
    <property name="meta.media.progressive">1</property>
    <property name="shotcut:caption">5.mp4</property>
    <property name="meta.shotcut.vui">1</property>
    <filter id="filter0" out="00:00:27.333">
      <property name="background">color:#00000000</property>
      <property name="mlt_service">affine</property>
      <property name="shotcut:filter">affineSizePosition</property>
      <property name="transition.fill">1</property>
      <property name="transition.distort">0</property>
      <property name="transition.rect">-232.32 -11.514 2384.64 1102 1</property>
      <property name="transition.valign">middle</property>
      <property name="transition.halign">center</property>
      <property name="shotcut:animIn">00:00:00.000</property>
      <property name="shotcut:animOut">00:00:00.000</property>
      <property name="transition.threads">0</property>
    </filter>
  </chain>
  <tractor id="tractor3" in="00:00:00.000" out="00:00:00.542">
    <property name="shotcut:transition">lumaMix</property>
    <track producer="chain3" in="00:00:26.417" out="00:00:26.958"/>
    <track producer="chain4" in="00:00:00.000" out="00:00:00.542"/>
    <transition id="transition6" out="00:00:00.542">
      <property name="a_track">0</property>
      <property name="b_track">1</property>
      <property name="factory">loader</property>
      <property name="mlt_service">luma</property>
      <property name="alpha_over">1</property>
      <property name="fix_background_alpha">1</property>
    </transition>
    <transition id="transition7" out="00:00:00.542">
      <property name="a_track">0</property>
      <property name="b_track">1</property>
      <property name="mlt_service">mix</property>
      <property name="start">-1</property>
      <property name="accepts_blanks">1</property>
    </transition>
  </tractor>
  <chain id="chain5" out="00:00:15.250">
    <property name="length">00:00:15.292</property>
    <property name="eof">pause</property>
    <property name="resource">D:/projects/unreal_engine_5/PlantsVsZombies/Main_menu_vids/6.mp4</property>
    <property name="mlt_service">avformat-novalidate</property>
    <property name="meta.media.nb_streams">2</property>
    <property name="meta.media.0.stream.type">video</property>
    <property name="meta.media.0.stream.frame_rate">30.0005</property>
    <property name="meta.media.0.stream.sample_aspect_ratio">0</property>
    <property name="meta.media.0.codec.width">848</property>
    <property name="meta.media.0.codec.height">392</property>
    <property name="meta.media.0.codec.rotate">0</property>
    <property name="meta.media.0.codec.pix_fmt">yuv420p</property>
    <property name="meta.media.0.codec.sample_aspect_ratio">0</property>
    <property name="meta.media.0.codec.colorspace">709</property>
    <property name="meta.media.0.codec.color_trc">1</property>
    <property name="meta.media.0.codec.name">h264</property>
    <property name="meta.media.0.codec.long_name">H.264 / AVC / MPEG-4 AVC / MPEG-4 part 10</property>
    <property name="meta.media.0.codec.bit_rate">1274170</property>
    <property name="meta.attr.0.stream.vendor_id.markup">[0][0][0][0]</property>
    <property name="meta.media.1.stream.type">audio</property>
    <property name="meta.media.1.codec.sample_fmt">fltp</property>
    <property name="meta.media.1.codec.sample_rate">48000</property>
    <property name="meta.media.1.codec.channels">2</property>
    <property name="meta.media.1.codec.name">aac</property>
    <property name="meta.media.1.codec.long_name">AAC (Advanced Audio Coding)</property>
    <property name="meta.media.1.codec.bit_rate">256029</property>
    <property name="meta.attr.1.stream.vendor_id.markup">[0][0][0][0]</property>
    <property name="meta.attr.major_brand.markup">mp42</property>
    <property name="meta.attr.minor_version.markup">0</property>
    <property name="meta.attr.compatible_brands.markup">mp42isom</property>
    <property name="seekable">1</property>
    <property name="meta.media.sample_aspect_num">1</property>
    <property name="meta.media.sample_aspect_den">1</property>
    <property name="audio_index">1</property>
    <property name="video_index">0</property>
    <property name="creation_time">2025-03-30T14:50:25</property>
    <property name="vstream">0</property>
    <property name="meta.media.frame_rate_num">572500</property>
    <property name="meta.media.frame_rate_den">19083</property>
    <property name="meta.media.colorspace">709</property>
    <property name="meta.media.color_trc">1</property>
    <property name="meta.media.has_b_frames">0</property>
    <property name="meta.media.width">848</property>
    <property name="meta.media.height">392</property>
    <property name="meta.media.aspect_ratio">1</property>
    <property name="meta.media.color_range">mpeg</property>
    <property name="astream">0</property>
    <property name="shotcut:hash">5c523bca14bba72b43876232417f024e</property>
    <property name="xml">was here</property>
    <property name="meta.media.top_field_first">0</property>
    <property name="meta.media.progressive">1</property>
    <property name="shotcut:caption">6.mp4</property>
    <property name="meta.shotcut.vui">1</property>
    <filter id="filter1" out="00:00:15.250">
      <property name="background">color:#00000000</property>
      <property name="mlt_service">affine</property>
      <property name="shotcut:filter">affineSizePosition</property>
      <property name="transition.fill">1</property>
      <property name="transition.distort">0</property>
      <property name="transition.rect">-165.151 -11.514 2384.64 1102.33 1</property>
      <property name="transition.valign">middle</property>
      <property name="transition.halign">center</property>
      <property name="shotcut:animIn">00:00:00.000</property>
      <property name="shotcut:animOut">00:00:00.000</property>
      <property name="transition.threads">0</property>
    </filter>
  </chain>
  <tractor id="tractor4" in="00:00:00.000" out="00:00:00.458">
    <property name="shotcut:transition">lumaMix</property>
    <track producer="chain4" in="00:00:26.875" out="00:00:27.333"/>
    <track producer="chain5" in="00:00:00.000" out="00:00:00.458"/>
    <transition id="transition8" out="00:00:00.458">
      <property name="a_track">0</property>
      <property name="b_track">1</property>
      <property name="factory">loader</property>
      <property name="mlt_service">luma</property>
      <property name="alpha_over">1</property>
      <property name="fix_background_alpha">1</property>
    </transition>
    <transition id="transition9" out="00:00:00.458">
      <property name="a_track">0</property>
      <property name="b_track">1</property>
      <property name="mlt_service">mix</property>
      <property name="start">-1</property>
      <property name="accepts_blanks">1</property>
    </transition>
  </tractor>
  <chain id="chain6" out="00:00:20.375">
    <property name="length">00:00:20.417</property>
    <property name="eof">pause</property>
    <property name="resource">D:/projects/unreal_engine_5/PlantsVsZombies/Main_menu_vids/7.mp4</property>
    <property name="mlt_service">avformat-novalidate</property>
    <property name="meta.media.nb_streams">2</property>
    <property name="meta.media.0.stream.type">video</property>
    <property name="meta.media.0.stream.frame_rate">60.0135</property>
    <property name="meta.media.0.stream.sample_aspect_ratio">0</property>
    <property name="meta.media.0.codec.width">848</property>
    <property name="meta.media.0.codec.height">478</property>
    <property name="meta.media.0.codec.rotate">0</property>
    <property name="meta.media.0.codec.pix_fmt">yuv420p</property>
    <property name="meta.media.0.codec.sample_aspect_ratio">0</property>
    <property name="meta.media.0.codec.colorspace">601</property>
    <property name="meta.media.0.codec.color_trc">6</property>
    <property name="meta.media.0.codec.name">h264</property>
    <property name="meta.media.0.codec.long_name">H.264 / AVC / MPEG-4 AVC / MPEG-4 part 10</property>
    <property name="meta.media.0.codec.bit_rate">1727875</property>
    <property name="meta.attr.0.stream.vendor_id.markup">[0][0][0][0]</property>
    <property name="meta.media.1.stream.type">audio</property>
    <property name="meta.media.1.codec.sample_fmt">fltp</property>
    <property name="meta.media.1.codec.sample_rate">48000</property>
    <property name="meta.media.1.codec.channels">2</property>
    <property name="meta.media.1.codec.name">aac</property>
    <property name="meta.media.1.codec.long_name">AAC (Advanced Audio Coding)</property>
    <property name="meta.media.1.codec.bit_rate">256082</property>
    <property name="meta.attr.1.stream.vendor_id.markup">[0][0][0][0]</property>
    <property name="meta.attr.major_brand.markup">mp42</property>
    <property name="meta.attr.minor_version.markup">0</property>
    <property name="meta.attr.compatible_brands.markup">mp42isom</property>
    <property name="seekable">1</property>
    <property name="meta.media.sample_aspect_num">1</property>
    <property name="meta.media.sample_aspect_den">1</property>
    <property name="audio_index">1</property>
    <property name="video_index">0</property>
    <property name="creation_time">2025-03-18T22:33:32</property>
    <property name="vstream">0</property>
    <property name="meta.media.frame_rate_num">18375000</property>
    <property name="meta.media.frame_rate_den">306181</property>
    <property name="meta.media.colorspace">601</property>
    <property name="meta.media.color_trc">6</property>
    <property name="meta.media.has_b_frames">0</property>
    <property name="meta.media.width">848</property>
    <property name="meta.media.height">478</property>
    <property name="meta.media.aspect_ratio">1</property>
    <property name="meta.media.color_range">mpeg</property>
    <property name="astream">0</property>
    <property name="shotcut:hash">16eaa1662a03dd4dbdcf4d5f0af415a0</property>
    <property name="xml">was here</property>
    <property name="meta.media.variable_frame_rate">1</property>
    <property name="meta.media.top_field_first">0</property>
    <property name="meta.media.progressive">1</property>
    <property name="shotcut:caption">7.mp4</property>
  </chain>
  <tractor id="tractor5" in="00:00:00.000" out="00:00:00.500">
    <property name="shotcut:transition">lumaMix</property>
    <track producer="chain5" in="00:00:14.750" out="00:00:15.250"/>
    <track producer="chain6" in="00:00:00.000" out="00:00:00.500"/>
    <transition id="transition10" out="00:00:00.500">
      <property name="a_track">0</property>
      <property name="b_track">1</property>
      <property name="factory">loader</property>
      <property name="mlt_service">luma</property>
      <property name="alpha_over">1</property>
      <property name="fix_background_alpha">1</property>
    </transition>
    <transition id="transition11" out="00:00:00.500">
      <property name="a_track">0</property>
      <property name="b_track">1</property>
      <property name="mlt_service">mix</property>
      <property name="start">-1</property>
      <property name="accepts_blanks">1</property>
    </transition>
  </tractor>
  <chain id="chain7" out="00:01:15.333">
    <property name="length">00:01:15.375</property>
    <property name="eof">pause</property>
    <property name="resource">D:/projects/unreal_engine_5/PlantsVsZombies/Main_menu_vids/8.mp4</property>
    <property name="mlt_service">avformat-novalidate</property>
    <property name="meta.media.nb_streams">2</property>
    <property name="meta.media.0.stream.type">video</property>
    <property name="meta.media.0.stream.frame_rate">59.9684</property>
    <property name="meta.media.0.stream.sample_aspect_ratio">0</property>
    <property name="meta.media.0.codec.width">848</property>
    <property name="meta.media.0.codec.height">480</property>
    <property name="meta.media.0.codec.rotate">0</property>
    <property name="meta.media.0.codec.pix_fmt">yuv420p</property>
    <property name="meta.media.0.codec.sample_aspect_ratio">0</property>
    <property name="meta.media.0.codec.colorspace">709</property>
    <property name="meta.media.0.codec.color_trc">1</property>
    <property name="meta.media.0.codec.name">h264</property>
    <property name="meta.media.0.codec.long_name">H.264 / AVC / MPEG-4 AVC / MPEG-4 part 10</property>
    <property name="meta.media.0.codec.bit_rate">2028816</property>
    <property name="meta.attr.0.stream.vendor_id.markup">[0][0][0][0]</property>
    <property name="meta.media.1.stream.type">audio</property>
    <property name="meta.media.1.codec.sample_fmt">fltp</property>
    <property name="meta.media.1.codec.sample_rate">48000</property>
    <property name="meta.media.1.codec.channels">2</property>
    <property name="meta.media.1.codec.name">aac</property>
    <property name="meta.media.1.codec.long_name">AAC (Advanced Audio Coding)</property>
    <property name="meta.media.1.codec.bit_rate">256016</property>
    <property name="meta.attr.1.stream.vendor_id.markup">[0][0][0][0]</property>
    <property name="meta.attr.major_brand.markup">mp42</property>
    <property name="meta.attr.minor_version.markup">0</property>
    <property name="meta.attr.compatible_brands.markup">mp42isom</property>
    <property name="seekable">1</property>
    <property name="meta.media.sample_aspect_num">1</property>
    <property name="meta.media.sample_aspect_den">1</property>
    <property name="audio_index">1</property>
    <property name="video_index">0</property>
    <property name="creation_time">2025-03-18T22:33:35</property>
    <property name="vstream">0</property>
    <property name="meta.media.frame_rate_num">406710000</property>
    <property name="meta.media.frame_rate_den">6782069</property>
    <property name="meta.media.colorspace">709</property>
    <property name="meta.media.color_trc">1</property>
    <property name="meta.media.has_b_frames">0</property>
    <property name="meta.media.width">848</property>
    <property name="meta.media.height">480</property>
    <property name="meta.media.aspect_ratio">1</property>
    <property name="meta.media.color_range">mpeg</property>
    <property name="astream">0</property>
    <property name="shotcut:hash">a0a5141badb78c0887bc0fd0418a5e82</property>
    <property name="xml">was here</property>
    <property name="meta.media.variable_frame_rate">1</property>
    <property name="meta.media.top_field_first">0</property>
    <property name="meta.media.progressive">1</property>
    <property name="shotcut:caption">8.mp4</property>
  </chain>
  <tractor id="tractor6" in="00:00:00.000" out="00:00:00.417">
    <property name="shotcut:transition">lumaMix</property>
    <track producer="chain6" in="00:00:14.458" out="00:00:14.875"/>
    <track producer="chain7" in="00:00:00.000" out="00:00:00.417"/>
    <transition id="transition12" out="00:00:00.417">
      <property name="a_track">0</property>
      <property name="b_track">1</property>
      <property name="factory">loader</property>
      <property name="mlt_service">luma</property>
      <property name="alpha_over">1</property>
      <property name="fix_background_alpha">1</property>
    </transition>
    <transition id="transition13" out="00:00:00.417">
      <property name="a_track">0</property>
      <property name="b_track">1</property>
      <property name="mlt_service">mix</property>
      <property name="start">-1</property>
      <property name="accepts_blanks">1</property>
    </transition>
  </tractor>
  <chain id="chain8" out="00:00:12.500">
    <property name="length">00:00:12.542</property>
    <property name="eof">pause</property>
    <property name="resource">D:/projects/unreal_engine_5/PlantsVsZombies/Main_menu_vids/9.mp4</property>
    <property name="mlt_service">avformat-novalidate</property>
    <property name="meta.media.nb_streams">2</property>
    <property name="meta.media.0.stream.type">video</property>
    <property name="meta.media.0.stream.frame_rate">30.0104</property>
    <property name="meta.media.0.stream.sample_aspect_ratio">0</property>
    <property name="meta.media.0.codec.width">848</property>
    <property name="meta.media.0.codec.height">478</property>
    <property name="meta.media.0.codec.rotate">0</property>
    <property name="meta.media.0.codec.pix_fmt">yuv420p</property>
    <property name="meta.media.0.codec.sample_aspect_ratio">0</property>
    <property name="meta.media.0.codec.colorspace">601</property>
    <property name="meta.media.0.codec.color_trc">6</property>
    <property name="meta.media.0.codec.name">h264</property>
    <property name="meta.media.0.codec.long_name">H.264 / AVC / MPEG-4 AVC / MPEG-4 part 10</property>
    <property name="meta.media.0.codec.bit_rate">1233009</property>
    <property name="meta.attr.0.stream.vendor_id.markup">[0][0][0][0]</property>
    <property name="meta.media.1.stream.type">audio</property>
    <property name="meta.media.1.codec.sample_fmt">fltp</property>
    <property name="meta.media.1.codec.sample_rate">48000</property>
    <property name="meta.media.1.codec.channels">2</property>
    <property name="meta.media.1.codec.name">aac</property>
    <property name="meta.media.1.codec.long_name">AAC (Advanced Audio Coding)</property>
    <property name="meta.media.1.codec.bit_rate">256082</property>
    <property name="meta.attr.1.stream.vendor_id.markup">[0][0][0][0]</property>
    <property name="meta.attr.major_brand.markup">mp42</property>
    <property name="meta.attr.minor_version.markup">0</property>
    <property name="meta.attr.compatible_brands.markup">mp42isom</property>
    <property name="seekable">1</property>
    <property name="meta.media.sample_aspect_num">1</property>
    <property name="meta.media.sample_aspect_den">1</property>
    <property name="audio_index">1</property>
    <property name="video_index">0</property>
    <property name="creation_time">2025-03-18T22:33:33</property>
    <property name="vstream">0</property>
    <property name="meta.media.frame_rate_num">11190000</property>
    <property name="meta.media.frame_rate_den">372871</property>
    <property name="meta.media.colorspace">601</property>
    <property name="meta.media.color_trc">6</property>
    <property name="meta.media.has_b_frames">0</property>
    <property name="meta.media.width">848</property>
    <property name="meta.media.height">478</property>
    <property name="meta.media.aspect_ratio">1</property>
    <property name="meta.media.color_range">mpeg</property>
    <property name="astream">0</property>
    <property name="shotcut:hash">9a052ef12d84894a20d24e4ad5c9fef6</property>
    <property name="xml">was here</property>
    <property name="meta.media.top_field_first">0</property>
    <property name="meta.media.progressive">1</property>
    <property name="shotcut:caption">9.mp4</property>
  </chain>
  <tractor id="tractor7" in="00:00:00.000" out="00:00:00.458">
    <property name="shotcut:transition">lumaMix</property>
    <track producer="chain7" in="00:01:12.875" out="00:01:13.333"/>
    <track producer="chain8" in="00:00:00.000" out="00:00:00.458"/>
    <transition id="transition14" out="00:00:00.458">
      <property name="a_track">0</property>
      <property name="b_track">1</property>
      <property name="factory">loader</property>
      <property name="mlt_service">luma</property>
      <property name="alpha_over">1</property>
      <property name="fix_background_alpha">1</property>
    </transition>
    <transition id="transition15" out="00:00:00.458">
      <property name="a_track">0</property>
      <property name="b_track">1</property>
      <property name="mlt_service">mix</property>
      <property name="start">-1</property>
      <property name="accepts_blanks">1</property>
    </transition>
  </tractor>
  <chain id="chain9" out="00:00:08.458">
    <property name="length">00:00:08.500</property>
    <property name="eof">pause</property>
    <property name="resource">D:/projects/unreal_engine_5/PlantsVsZombies/Main_menu_vids/10.mp4</property>
    <property name="mlt_service">avformat-novalidate</property>
    <property name="meta.media.nb_streams">2</property>
    <property name="meta.media.0.stream.type">video</property>
    <property name="meta.media.0.stream.frame_rate">59.9408</property>
    <property name="meta.media.0.stream.sample_aspect_ratio">0</property>
    <property name="meta.media.0.codec.width">848</property>
    <property name="meta.media.0.codec.height">480</property>
    <property name="meta.media.0.codec.rotate">0</property>
    <property name="meta.media.0.codec.pix_fmt">yuv420p</property>
    <property name="meta.media.0.codec.sample_aspect_ratio">0</property>
    <property name="meta.media.0.codec.colorspace">709</property>
    <property name="meta.media.0.codec.color_trc">1</property>
    <property name="meta.media.0.codec.name">h264</property>
    <property name="meta.media.0.codec.long_name">H.264 / AVC / MPEG-4 AVC / MPEG-4 part 10</property>
    <property name="meta.media.0.codec.bit_rate">1265766</property>
    <property name="meta.attr.0.stream.vendor_id.markup">[0][0][0][0]</property>
    <property name="meta.media.1.stream.type">audio</property>
    <property name="meta.media.1.codec.sample_fmt">fltp</property>
    <property name="meta.media.1.codec.sample_rate">44100</property>
    <property name="meta.media.1.codec.channels">2</property>
    <property name="meta.media.1.codec.name">aac</property>
    <property name="meta.media.1.codec.long_name">AAC (Advanced Audio Coding)</property>
    <property name="meta.media.1.codec.bit_rate">76747</property>
    <property name="meta.attr.1.stream.vendor_id.markup">[0][0][0][0]</property>
    <property name="meta.attr.major_brand.markup">mp42</property>
    <property name="meta.attr.minor_version.markup">0</property>
    <property name="meta.attr.compatible_brands.markup">mp42isom</property>
    <property name="seekable">1</property>
    <property name="meta.media.sample_aspect_num">1</property>
    <property name="meta.media.sample_aspect_den">1</property>
    <property name="audio_index">1</property>
    <property name="video_index">0</property>
    <property name="creation_time">2025-03-18T22:33:34</property>
    <property name="vstream">0</property>
    <property name="meta.media.frame_rate_num">60720</property>
    <property name="meta.media.frame_rate_den">1013</property>
    <property name="meta.media.colorspace">709</property>
    <property name="meta.media.color_trc">1</property>
    <property name="meta.media.has_b_frames">0</property>
    <property name="meta.media.width">848</property>
    <property name="meta.media.height">480</property>
    <property name="meta.media.aspect_ratio">1</property>
    <property name="meta.media.color_range">mpeg</property>
    <property name="astream">0</property>
    <property name="shotcut:hash">73190af68e473f2ccf568e1e6fec0aec</property>
    <property name="xml">was here</property>
    <property name="meta.media.top_field_first">0</property>
    <property name="meta.media.progressive">1</property>
    <property name="shotcut:caption">10.mp4</property>
  </chain>
  <tractor id="tractor8" in="00:00:00.000" out="00:00:00.458">
    <property name="shotcut:transition">lumaMix</property>
    <track producer="chain8" in="00:00:12.042" out="00:00:12.500"/>
    <track producer="chain9" in="00:00:00.000" out="00:00:00.458"/>
    <transition id="transition16" out="00:00:00.458">
      <property name="a_track">0</property>
      <property name="b_track">1</property>
      <property name="factory">loader</property>
      <property name="mlt_service">luma</property>
      <property name="alpha_over">1</property>
      <property name="fix_background_alpha">1</property>
    </transition>
    <transition id="transition17" out="00:00:00.458">
      <property name="a_track">0</property>
      <property name="b_track">1</property>
      <property name="mlt_service">mix</property>
      <property name="start">-1</property>
      <property name="accepts_blanks">1</property>
    </transition>
  </tractor>
  <chain id="chain10" out="00:00:09.750">
    <property name="length">00:00:09.792</property>
    <property name="eof">pause</property>
    <property name="resource">D:/projects/unreal_engine_5/PlantsVsZombies/Main_menu_vids/11.mp4</property>
    <property name="mlt_service">avformat-novalidate</property>
    <property name="meta.media.nb_streams">2</property>
    <property name="meta.media.0.stream.type">video</property>
    <property name="meta.media.0.stream.frame_rate">30</property>
    <property name="meta.media.0.stream.sample_aspect_ratio">0</property>
    <property name="meta.media.0.codec.width">848</property>
    <property name="meta.media.0.codec.height">480</property>
    <property name="meta.media.0.codec.rotate">0</property>
    <property name="meta.media.0.codec.pix_fmt">yuv420p</property>
    <property name="meta.media.0.codec.sample_aspect_ratio">0</property>
    <property name="meta.media.0.codec.colorspace">709</property>
    <property name="meta.media.0.codec.color_trc">1</property>
    <property name="meta.media.0.codec.name">h264</property>
    <property name="meta.media.0.codec.long_name">H.264 / AVC / MPEG-4 AVC / MPEG-4 part 10</property>
    <property name="meta.media.0.codec.bit_rate">1483117</property>
    <property name="meta.attr.0.stream.vendor_id.markup">[0][0][0][0]</property>
    <property name="meta.media.1.stream.type">audio</property>
    <property name="meta.media.1.codec.sample_fmt">fltp</property>
    <property name="meta.media.1.codec.sample_rate">44100</property>
    <property name="meta.media.1.codec.channels">2</property>
    <property name="meta.media.1.codec.name">aac</property>
    <property name="meta.media.1.codec.long_name">AAC (Advanced Audio Coding)</property>
    <property name="meta.media.1.codec.bit_rate">64326</property>
    <property name="meta.attr.1.stream.vendor_id.markup">[0][0][0][0]</property>
    <property name="meta.attr.major_brand.markup">mp42</property>
    <property name="meta.attr.minor_version.markup">0</property>
    <property name="meta.attr.compatible_brands.markup">mp42isom</property>
    <property name="seekable">1</property>
    <property name="meta.media.sample_aspect_num">1</property>
    <property name="meta.media.sample_aspect_den">1</property>
    <property name="audio_index">1</property>
    <property name="video_index">0</property>
    <property name="creation_time">2025-03-30T14:43:58</property>
    <property name="vstream">0</property>
    <property name="meta.media.frame_rate_num">30</property>
    <property name="meta.media.frame_rate_den">1</property>
    <property name="meta.media.colorspace">709</property>
    <property name="meta.media.color_trc">1</property>
    <property name="meta.media.has_b_frames">0</property>
    <property name="meta.media.width">848</property>
    <property name="meta.media.height">480</property>
    <property name="meta.media.aspect_ratio">1</property>
    <property name="meta.media.color_range">mpeg</property>
    <property name="astream">0</property>
    <property name="shotcut:hash">4d9e51228610d8604a015e86ce20756d</property>
    <property name="xml">was here</property>
    <property name="meta.media.top_field_first">0</property>
    <property name="meta.media.progressive">1</property>
    <property name="shotcut:caption">11.mp4</property>
  </chain>
  <tractor id="tractor9" in="00:00:00.000" out="00:00:00.458">
    <property name="shotcut:transition">lumaMix</property>
    <track producer="chain9" in="00:00:08.000" out="00:00:08.458"/>
    <track producer="chain10" in="00:00:00.000" out="00:00:00.458"/>
    <transition id="transition18" out="00:00:00.458">
      <property name="a_track">0</property>
      <property name="b_track">1</property>
      <property name="factory">loader</property>
      <property name="mlt_service">luma</property>
      <property name="alpha_over">1</property>
      <property name="fix_background_alpha">1</property>
    </transition>
    <transition id="transition19" out="00:00:00.458">
      <property name="a_track">0</property>
      <property name="b_track">1</property>
      <property name="mlt_service">mix</property>
      <property name="start">-1</property>
      <property name="accepts_blanks">1</property>
    </transition>
  </tractor>
  <chain id="chain11" out="00:00:19.833">
    <property name="length">00:00:19.875</property>
    <property name="eof">pause</property>
    <property name="resource">D:/projects/unreal_engine_5/PlantsVsZombies/Main_menu_vids/12.mp4</property>
    <property name="mlt_service">avformat-novalidate</property>
    <property name="meta.media.nb_streams">2</property>
    <property name="meta.media.0.stream.type">video</property>
    <property name="meta.media.0.stream.frame_rate">59.9495</property>
    <property name="meta.media.0.stream.sample_aspect_ratio">0</property>
    <property name="meta.media.0.codec.width">848</property>
    <property name="meta.media.0.codec.height">478</property>
    <property name="meta.media.0.codec.rotate">0</property>
    <property name="meta.media.0.codec.pix_fmt">yuv420p</property>
    <property name="meta.media.0.codec.sample_aspect_ratio">0</property>
    <property name="meta.media.0.codec.colorspace">601</property>
    <property name="meta.media.0.codec.color_trc">6</property>
    <property name="meta.media.0.codec.name">h264</property>
    <property name="meta.media.0.codec.long_name">H.264 / AVC / MPEG-4 AVC / MPEG-4 part 10</property>
    <property name="meta.media.0.codec.bit_rate">1229939</property>
    <property name="meta.attr.0.stream.vendor_id.markup">[0][0][0][0]</property>
    <property name="meta.media.1.stream.type">audio</property>
    <property name="meta.media.1.codec.sample_fmt">fltp</property>
    <property name="meta.media.1.codec.sample_rate">48000</property>
    <property name="meta.media.1.codec.channels">2</property>
    <property name="meta.media.1.codec.name">aac</property>
    <property name="meta.media.1.codec.long_name">AAC (Advanced Audio Coding)</property>
    <property name="meta.media.1.codec.bit_rate">191905</property>
    <property name="meta.attr.1.stream.vendor_id.markup">[0][0][0][0]</property>
    <property name="meta.attr.major_brand.markup">mp42</property>
    <property name="meta.attr.minor_version.markup">0</property>
    <property name="meta.attr.compatible_brands.markup">mp42isom</property>
    <property name="seekable">1</property>
    <property name="meta.media.sample_aspect_num">1</property>
    <property name="meta.media.sample_aspect_den">1</property>
    <property name="audio_index">1</property>
    <property name="video_index">0</property>
    <property name="creation_time">2025-03-30T15:11:09</property>
    <property name="vstream">0</property>
    <property name="meta.media.frame_rate_num">17865000</property>
    <property name="meta.media.frame_rate_den">298001</property>
    <property name="meta.media.colorspace">601</property>
    <property name="meta.media.color_trc">6</property>
    <property name="meta.media.has_b_frames">0</property>
    <property name="meta.media.width">848</property>
    <property name="meta.media.height">478</property>
    <property name="meta.media.aspect_ratio">1</property>
    <property name="meta.media.color_range">mpeg</property>
    <property name="astream">0</property>
    <property name="shotcut:hash">fe704f713143cd597a6a3e72e40a67a9</property>
    <property name="xml">was here</property>
    <property name="meta.media.variable_frame_rate">1</property>
    <property name="meta.media.top_field_first">0</property>
    <property name="meta.media.progressive">1</property>
    <property name="shotcut:caption">12.mp4</property>
  </chain>
  <tractor id="tractor10" in="00:00:00.000" out="00:00:00.417">
    <property name="shotcut:transition">lumaMix</property>
    <track producer="chain10" in="00:00:09.333" out="00:00:09.750"/>
    <track producer="chain11" in="00:00:00.000" out="00:00:00.417"/>
    <transition id="transition20" out="00:00:00.417">
      <property name="a_track">0</property>
      <property name="b_track">1</property>
      <property name="factory">loader</property>
      <property name="mlt_service">luma</property>
      <property name="alpha_over">1</property>
      <property name="fix_background_alpha">1</property>
    </transition>
    <transition id="transition21" out="00:00:00.417">
      <property name="a_track">0</property>
      <property name="b_track">1</property>
      <property name="mlt_service">mix</property>
      <property name="start">-1</property>
      <property name="accepts_blanks">1</property>
    </transition>
  </tractor>
  <chain id="chain12" out="00:00:14.208">
    <property name="length">00:00:14.250</property>
    <property name="eof">pause</property>
    <property name="resource">D:/projects/unreal_engine_5/PlantsVsZombies/Main_menu_vids/13.mp4</property>
    <property name="mlt_service">avformat-novalidate</property>
    <property name="meta.media.nb_streams">2</property>
    <property name="meta.media.0.stream.type">video</property>
    <property name="meta.media.0.stream.frame_rate">59.4665</property>
    <property name="meta.media.0.stream.sample_aspect_ratio">0</property>
    <property name="meta.media.0.codec.width">476</property>
    <property name="meta.media.0.codec.height">848</property>
    <property name="meta.media.0.codec.rotate">0</property>
    <property name="meta.media.0.codec.pix_fmt">yuv420p</property>
    <property name="meta.media.0.codec.sample_aspect_ratio">0</property>
    <property name="meta.media.0.codec.colorspace">601</property>
    <property name="meta.media.0.codec.color_trc">6</property>
    <property name="meta.media.0.codec.name">h264</property>
    <property name="meta.media.0.codec.long_name">H.264 / AVC / MPEG-4 AVC / MPEG-4 part 10</property>
    <property name="meta.media.0.codec.bit_rate">1189078</property>
    <property name="meta.attr.0.stream.vendor_id.markup">[0][0][0][0]</property>
    <property name="meta.media.1.stream.type">audio</property>
    <property name="meta.media.1.codec.sample_fmt">fltp</property>
    <property name="meta.media.1.codec.sample_rate">48000</property>
    <property name="meta.media.1.codec.channels">2</property>
    <property name="meta.media.1.codec.name">aac</property>
    <property name="meta.media.1.codec.long_name">AAC (Advanced Audio Coding)</property>
    <property name="meta.media.1.codec.bit_rate">192226</property>
    <property name="meta.attr.1.stream.vendor_id.markup">[0][0][0][0]</property>
    <property name="meta.attr.major_brand.markup">mp42</property>
    <property name="meta.attr.minor_version.markup">0</property>
    <property name="meta.attr.compatible_brands.markup">mp42isom</property>
    <property name="seekable">1</property>
    <property name="meta.media.sample_aspect_num">1</property>
    <property name="meta.media.sample_aspect_den">1</property>
    <property name="audio_index">1</property>
    <property name="video_index">0</property>
    <property name="creation_time">2025-03-30T15:11:09</property>
    <property name="vstream">0</property>
    <property name="meta.media.frame_rate_num">6360000</property>
    <property name="meta.media.frame_rate_den">106951</property>
    <property name="meta.media.colorspace">601</property>
    <property name="meta.media.color_trc">6</property>
    <property name="meta.media.has_b_frames">0</property>
    <property name="meta.media.width">476</property>
    <property name="meta.media.height">848</property>
    <property name="meta.media.aspect_ratio">1</property>
    <property name="meta.media.color_range">mpeg</property>
    <property name="astream">0</property>
    <property name="shotcut:hash">ca380bc45ae4773e9a0fae49ee7ae409</property>
    <property name="meta.media.variable_frame_rate">1</property>
    <property name="meta.media.top_field_first">0</property>
    <property name="meta.media.progressive">1</property>
    <property name="shotcut:caption">13.mp4</property>
    <property name="meta.shotcut.vui">1</property>
    <property name="xml">was here</property>
    <filter id="filter2" out="00:00:14.750">
      <property name="background">color:#00000000</property>
      <property name="mlt_service">affine</property>
      <property name="shotcut:filter">affineSizePosition</property>
      <property name="transition.fill">1</property>
      <property name="transition.distort">0</property>
      <property name="transition.rect">383.974 -485.5 1151.22 2051 1</property>
      <property name="transition.valign">middle</property>
      <property name="transition.halign">center</property>
      <property name="shotcut:animIn">00:00:00.000</property>
      <property name="shotcut:animOut">00:00:00.000</property>
      <property name="transition.threads">0</property>
      <property name="transition.fix_rotate_x">-90</property>
    </filter>
  </chain>
  <tractor id="tractor11" in="00:00:00.000" out="00:00:00.500">
    <property name="shotcut:transition">lumaMix</property>
    <track producer="chain11" in="00:00:19.333" out="00:00:19.833"/>
    <track producer="chain12" in="00:00:00.000" out="00:00:00.500"/>
    <transition id="transition22" out="00:00:00.500">
      <property name="a_track">0</property>
      <property name="b_track">1</property>
      <property name="factory">loader</property>
      <property name="mlt_service">luma</property>
      <property name="alpha_over">1</property>
      <property name="fix_background_alpha">1</property>
    </transition>
    <transition id="transition23" out="00:00:00.500">
      <property name="a_track">0</property>
      <property name="b_track">1</property>
      <property name="mlt_service">mix</property>
      <property name="start">-1</property>
      <property name="accepts_blanks">1</property>
    </transition>
  </tractor>
  <chain id="chain13" out="00:03:19.250">
    <property name="length">00:03:19.292</property>
    <property name="eof">pause</property>
    <property name="resource">D:/projects/unreal_engine_5/PlantsVsZombies/Main_menu_vids/14.mp4</property>
    <property name="mlt_service">avformat-novalidate</property>
    <property name="meta.media.nb_streams">2</property>
    <property name="meta.media.0.stream.type">video</property>
    <property name="meta.media.0.stream.frame_rate">29.8388</property>
    <property name="meta.media.0.stream.sample_aspect_ratio">0</property>
    <property name="meta.media.0.codec.width">848</property>
    <property name="meta.media.0.codec.height">392</property>
    <property name="meta.media.0.codec.rotate">0</property>
    <property name="meta.media.0.codec.pix_fmt">yuv420p</property>
    <property name="meta.media.0.codec.sample_aspect_ratio">0</property>
    <property name="meta.media.0.codec.colorspace">601</property>
    <property name="meta.media.0.codec.color_trc">6</property>
    <property name="meta.media.0.codec.name">h264</property>
    <property name="meta.media.0.codec.long_name">H.264 / AVC / MPEG-4 AVC / MPEG-4 part 10</property>
    <property name="meta.media.0.codec.bit_rate">1065332</property>
    <property name="meta.attr.0.stream.vendor_id.markup">[0][0][0][0]</property>
    <property name="meta.media.1.stream.type">audio</property>
    <property name="meta.media.1.codec.sample_fmt">fltp</property>
    <property name="meta.media.1.codec.sample_rate">48000</property>
    <property name="meta.media.1.codec.channels">2</property>
    <property name="meta.media.1.codec.name">aac</property>
    <property name="meta.media.1.codec.long_name">AAC (Advanced Audio Coding)</property>
    <property name="meta.media.1.codec.bit_rate">256009</property>
    <property name="meta.attr.1.stream.vendor_id.markup">[0][0][0][0]</property>
    <property name="meta.attr.major_brand.markup">mp42</property>
    <property name="meta.attr.minor_version.markup">0</property>
    <property name="meta.attr.compatible_brands.markup">mp42isom</property>
    <property name="seekable">1</property>
    <property name="meta.media.sample_aspect_num">1</property>
    <property name="meta.media.sample_aspect_den">1</property>
    <property name="audio_index">1</property>
    <property name="video_index">0</property>
    <property name="creation_time">2025-03-30T15:11:10</property>
    <property name="vstream">0</property>
    <property name="meta.media.frame_rate_num">178410000</property>
    <property name="meta.media.frame_rate_den">5979133</property>
    <property name="meta.media.colorspace">601</property>
    <property name="meta.media.color_trc">6</property>
    <property name="meta.media.has_b_frames">0</property>
    <property name="meta.media.width">848</property>
    <property name="meta.media.height">392</property>
    <property name="meta.media.aspect_ratio">1</property>
    <property name="meta.media.color_range">mpeg</property>
    <property name="astream">0</property>
    <property name="shotcut:hash">6c95cbf71ee585142172771e7012d5df</property>
    <property name="meta.media.variable_frame_rate">1</property>
    <property name="meta.media.top_field_first">0</property>
    <property name="meta.media.progressive">1</property>
    <property name="xml">was here</property>
    <property name="shotcut:caption">14.mp4</property>
    <property name="meta.shotcut.vui">1</property>
    <filter id="filter3" out="00:03:19.250">
      <property name="background">color:#00000000</property>
      <property name="mlt_service">affine</property>
      <property name="shotcut:filter">affineSizePosition</property>
      <property name="transition.fill">1</property>
      <property name="transition.distort">0</property>
      <property name="transition.rect">-232.32 -11.514 2384.64 1102 1</property>
      <property name="transition.valign">middle</property>
      <property name="transition.halign">center</property>
      <property name="shotcut:animIn">00:00:00.000</property>
      <property name="shotcut:animOut">00:00:00.000</property>
      <property name="transition.threads">0</property>
    </filter>
  </chain>
  <tractor id="tractor12" in="00:00:00.000" out="00:00:00.458">
    <property name="shotcut:transition">lumaMix</property>
    <track producer="chain12" in="00:00:13.750" out="00:00:14.208"/>
    <track producer="chain13" in="00:00:00.000" out="00:00:00.458"/>
    <transition id="transition24" out="00:00:00.458">
      <property name="a_track">0</property>
      <property name="b_track">1</property>
      <property name="factory">loader</property>
      <property name="mlt_service">luma</property>
      <property name="alpha_over">1</property>
      <property name="fix_background_alpha">1</property>
    </transition>
    <transition id="transition25" out="00:00:00.458">
      <property name="a_track">0</property>
      <property name="b_track">1</property>
      <property name="mlt_service">mix</property>
      <property name="start">-1</property>
      <property name="accepts_blanks">1</property>
    </transition>
  </tractor>
  <chain id="chain14" out="00:00:06.167">
    <property name="length">00:00:06.208</property>
    <property name="eof">pause</property>
    <property name="resource">D:/projects/unreal_engine_5/PlantsVsZombies/Main_menu_vids/15.mp4</property>
    <property name="mlt_service">avformat-novalidate</property>
    <property name="meta.media.nb_streams">2</property>
    <property name="meta.media.0.stream.type">video</property>
    <property name="meta.media.0.stream.frame_rate">29.8389</property>
    <property name="meta.media.0.stream.sample_aspect_ratio">0</property>
    <property name="meta.media.0.codec.width">848</property>
    <property name="meta.media.0.codec.height">480</property>
    <property name="meta.media.0.codec.rotate">0</property>
    <property name="meta.media.0.codec.pix_fmt">yuv420p</property>
    <property name="meta.media.0.codec.sample_aspect_ratio">0</property>
    <property name="meta.media.0.codec.colorspace">601</property>
    <property name="meta.media.0.codec.color_trc">6</property>
    <property name="meta.media.0.codec.name">h264</property>
    <property name="meta.media.0.codec.long_name">H.264 / AVC / MPEG-4 AVC / MPEG-4 part 10</property>
    <property name="meta.media.0.codec.bit_rate">1119329</property>
    <property name="meta.attr.0.stream.vendor_id.markup">[0][0][0][0]</property>
    <property name="meta.media.1.stream.type">audio</property>
    <property name="meta.media.1.codec.sample_fmt">fltp</property>
    <property name="meta.media.1.codec.sample_rate">44100</property>
    <property name="meta.media.1.codec.channels">2</property>
    <property name="meta.media.1.codec.name">aac</property>
    <property name="meta.media.1.codec.long_name">AAC (Advanced Audio Coding)</property>
    <property name="meta.media.1.codec.bit_rate">66049</property>
    <property name="meta.attr.1.stream.vendor_id.markup">[0][0][0][0]</property>
    <property name="meta.attr.major_brand.markup">mp42</property>
    <property name="meta.attr.minor_version.markup">0</property>
    <property name="meta.attr.compatible_brands.markup">mp42isom</property>
    <property name="seekable">1</property>
    <property name="meta.media.sample_aspect_num">1</property>
    <property name="meta.media.sample_aspect_den">1</property>
    <property name="audio_index">1</property>
    <property name="video_index">0</property>
    <property name="creation_time">2025-03-30T15:11:10</property>
    <property name="vstream">0</property>
    <property name="meta.media.frame_rate_num">150000</property>
    <property name="meta.media.frame_rate_den">5027</property>
    <property name="meta.media.colorspace">601</property>
    <property name="meta.media.color_trc">6</property>
    <property name="meta.media.has_b_frames">0</property>
    <property name="meta.media.width">848</property>
    <property name="meta.media.height">480</property>
    <property name="meta.media.aspect_ratio">1</property>
    <property name="meta.media.color_range">mpeg</property>
    <property name="astream">0</property>
    <property name="shotcut:hash">7c71203f9a9ad34e87a6b5c6bffa5a6d</property>
    <property name="xml">was here</property>
    <property name="meta.media.top_field_first">0</property>
    <property name="meta.media.progressive">1</property>
    <property name="shotcut:caption">15.mp4</property>
  </chain>
  <tractor id="tractor13" in="00:00:00.000" out="00:00:00.417">
    <property name="shotcut:transition">lumaMix</property>
    <track producer="chain13" in="00:03:18.833" out="00:03:19.250"/>
    <track producer="chain14" in="00:00:00.000" out="00:00:00.417"/>
    <transition id="transition26" out="00:00:00.417">
      <property name="a_track">0</property>
      <property name="b_track">1</property>
      <property name="factory">loader</property>
      <property name="mlt_service">luma</property>
      <property name="alpha_over">1</property>
      <property name="fix_background_alpha">1</property>
    </transition>
    <transition id="transition27" out="00:00:00.417">
      <property name="a_track">0</property>
      <property name="b_track">1</property>
      <property name="mlt_service">mix</property>
      <property name="start">-1</property>
      <property name="accepts_blanks">1</property>
    </transition>
  </tractor>
  <chain id="chain15" out="00:00:12.792">
    <property name="length">00:00:12.833</property>
    <property name="eof">pause</property>
    <property name="resource">D:/projects/unreal_engine_5/PlantsVsZombies/Main_menu_vids/16.mp4</property>
    <property name="mlt_service">avformat-novalidate</property>
    <property name="meta.media.nb_streams">2</property>
    <property name="meta.media.0.stream.type">video</property>
    <property name="meta.media.0.stream.frame_rate">24.5454</property>
    <property name="meta.media.0.stream.sample_aspect_ratio">0</property>
    <property name="meta.media.0.codec.width">848</property>
    <property name="meta.media.0.codec.height">392</property>
    <property name="meta.media.0.codec.rotate">0</property>
    <property name="meta.media.0.codec.pix_fmt">yuv420p</property>
    <property name="meta.media.0.codec.sample_aspect_ratio">0</property>
    <property name="meta.media.0.codec.colorspace">709</property>
    <property name="meta.media.0.codec.color_trc">1</property>
    <property name="meta.media.0.codec.name">h264</property>
    <property name="meta.media.0.codec.long_name">H.264 / AVC / MPEG-4 AVC / MPEG-4 part 10</property>
    <property name="meta.media.0.codec.bit_rate">1297714</property>
    <property name="meta.attr.0.stream.vendor_id.markup">[0][0][0][0]</property>
    <property name="meta.media.1.stream.type">audio</property>
    <property name="meta.media.1.codec.sample_fmt">fltp</property>
    <property name="meta.media.1.codec.sample_rate">48000</property>
    <property name="meta.media.1.codec.channels">2</property>
    <property name="meta.media.1.codec.name">aac</property>
    <property name="meta.media.1.codec.long_name">AAC (Advanced Audio Coding)</property>
    <property name="meta.media.1.codec.bit_rate">256104</property>
    <property name="meta.attr.1.stream.vendor_id.markup">[0][0][0][0]</property>
    <property name="meta.attr.major_brand.markup">mp42</property>
    <property name="meta.attr.minor_version.markup">0</property>
    <property name="meta.attr.compatible_brands.markup">mp42isom</property>
    <property name="seekable">1</property>
    <property name="meta.media.sample_aspect_num">1</property>
    <property name="meta.media.sample_aspect_den">1</property>
    <property name="audio_index">1</property>
    <property name="video_index">0</property>
    <property name="creation_time">2025-03-30T14:50:07</property>
    <property name="vstream">0</property>
    <property name="meta.media.frame_rate_num">9450000</property>
    <property name="meta.media.frame_rate_den">385001</property>
    <property name="meta.media.colorspace">709</property>
    <property name="meta.media.color_trc">1</property>
    <property name="meta.media.has_b_frames">0</property>
    <property name="meta.media.width">848</property>
    <property name="meta.media.height">392</property>
    <property name="meta.media.aspect_ratio">1</property>
    <property name="meta.media.color_range">mpeg</property>
    <property name="astream">0</property>
    <property name="shotcut:hash">01885c52fd8ca552e30af95f028f0e3d</property>
    <property name="xml">was here</property>
    <property name="meta.media.variable_frame_rate">1</property>
    <property name="meta.media.top_field_first">0</property>
    <property name="meta.media.progressive">1</property>
    <property name="shotcut:caption">16.mp4</property>
    <property name="meta.shotcut.vui">1</property>
    <filter id="filter4" out="00:00:13.167">
      <property name="background">color:#00000000</property>
      <property name="mlt_service">affine</property>
      <property name="shotcut:filter">affineSizePosition</property>
      <property name="transition.fill">1</property>
      <property name="transition.distort">0</property>
      <property name="transition.rect">-232.32 -11.514 2384.64 1102 1</property>
      <property name="transition.valign">middle</property>
      <property name="transition.halign">center</property>
      <property name="shotcut:animIn">00:00:00.000</property>
      <property name="shotcut:animOut">00:00:00.000</property>
      <property name="transition.threads">0</property>
    </filter>
  </chain>
  <tractor id="tractor14" in="00:00:00.000" out="00:00:00.333">
    <property name="shotcut:transition">lumaMix</property>
    <track producer="chain14" in="00:00:05.833" out="00:00:06.167"/>
    <track producer="chain15" in="00:00:00.000" out="00:00:00.333"/>
    <transition id="transition28" out="00:00:00.333">
      <property name="a_track">0</property>
      <property name="b_track">1</property>
      <property name="factory">loader</property>
      <property name="mlt_service">luma</property>
      <property name="alpha_over">1</property>
      <property name="fix_background_alpha">1</property>
    </transition>
    <transition id="transition29" out="00:00:00.333">
      <property name="a_track">0</property>
      <property name="b_track">1</property>
      <property name="mlt_service">mix</property>
      <property name="start">-1</property>
      <property name="accepts_blanks">1</property>
    </transition>
  </tractor>
  <chain id="chain16" out="00:00:58.708">
    <property name="length">00:00:58.750</property>
    <property name="eof">pause</property>
    <property name="resource">D:/projects/unreal_engine_5/PlantsVsZombies/Main_menu_vids/17.mp4</property>
    <property name="mlt_service">avformat-novalidate</property>
    <property name="meta.media.nb_streams">2</property>
    <property name="meta.media.0.stream.type">video</property>
    <property name="meta.media.0.stream.frame_rate">29.4483</property>
    <property name="meta.media.0.stream.sample_aspect_ratio">1</property>
    <property name="meta.media.0.codec.width">848</property>
    <property name="meta.media.0.codec.height">480</property>
    <property name="meta.media.0.codec.rotate">0</property>
    <property name="meta.media.0.codec.pix_fmt">yuv420p</property>
    <property name="meta.media.0.codec.sample_aspect_ratio">0</property>
    <property name="meta.media.0.codec.colorspace">709</property>
    <property name="meta.media.0.codec.color_trc">1</property>
    <property name="meta.media.0.codec.name">h264</property>
    <property name="meta.media.0.codec.long_name">H.264 / AVC / MPEG-4 AVC / MPEG-4 part 10</property>
    <property name="meta.media.0.codec.bit_rate">1535224</property>
    <property name="meta.attr.0.stream.vendor_id.markup">[0][0][0][0]</property>
    <property name="meta.media.1.stream.type">audio</property>
    <property name="meta.media.1.codec.sample_fmt">fltp</property>
    <property name="meta.media.1.codec.sample_rate">48000</property>
    <property name="meta.media.1.codec.channels">2</property>
    <property name="meta.media.1.codec.name">aac</property>
    <property name="meta.media.1.codec.long_name">AAC (Advanced Audio Coding)</property>
    <property name="meta.media.1.codec.bit_rate">192120</property>
    <property name="meta.attr.1.stream.vendor_id.markup">[0][0][0][0]</property>
    <property name="meta.attr.major_brand.markup">mp42</property>
    <property name="meta.attr.minor_version.markup">0</property>
    <property name="meta.attr.compatible_brands.markup">mp42isom</property>
    <property name="seekable">1</property>
    <property name="meta.media.sample_aspect_num">1</property>
    <property name="meta.media.sample_aspect_den">1</property>
    <property name="audio_index">1</property>
    <property name="video_index">0</property>
    <property name="creation_time">2025-03-18T22:33:35</property>
    <property name="vstream">0</property>
    <property name="meta.media.frame_rate_num">4865625</property>
    <property name="meta.media.frame_rate_den">165226</property>
    <property name="meta.media.colorspace">709</property>
    <property name="meta.media.color_trc">1</property>
    <property name="meta.media.has_b_frames">0</property>
    <property name="meta.media.width">848</property>
    <property name="meta.media.height">480</property>
    <property name="meta.media.aspect_ratio">1</property>
    <property name="meta.media.color_range">mpeg</property>
    <property name="astream">0</property>
    <property name="shotcut:hash">05a472c7e0be11ac070976bfc41a86bb</property>
    <property name="xml">was here</property>
    <property name="meta.media.variable_frame_rate">1</property>
    <property name="meta.media.top_field_first">0</property>
    <property name="meta.media.progressive">1</property>
    <property name="shotcut:caption">17.mp4</property>
  </chain>
  <tractor id="tractor15" in="00:00:00.000" out="00:00:00.708">
    <property name="shotcut:transition">lumaMix</property>
    <track producer="chain15" in="00:00:12.083" out="00:00:12.792"/>
    <track producer="chain16" in="00:00:00.000" out="00:00:00.708"/>
    <transition id="transition30" out="00:00:00.708">
      <property name="a_track">0</property>
      <property name="b_track">1</property>
      <property name="factory">loader</property>
      <property name="mlt_service">luma</property>
      <property name="alpha_over">1</property>
      <property name="fix_background_alpha">1</property>
    </transition>
    <transition id="transition31" out="00:00:00.708">
      <property name="a_track">0</property>
      <property name="b_track">1</property>
      <property name="mlt_service">mix</property>
      <property name="start">-1</property>
      <property name="accepts_blanks">1</property>
    </transition>
  </tractor>
  <chain id="chain17" out="00:00:21.917">
    <property name="length">00:00:21.958</property>
    <property name="eof">pause</property>
    <property name="resource">D:/projects/unreal_engine_5/PlantsVsZombies/Main_menu_vids/18.mp4</property>
    <property name="mlt_service">avformat-novalidate</property>
    <property name="meta.media.nb_streams">2</property>
    <property name="meta.media.0.stream.type">video</property>
    <property name="meta.media.0.stream.frame_rate">30.0364</property>
    <property name="meta.media.0.stream.sample_aspect_ratio">0</property>
    <property name="meta.media.0.codec.width">848</property>
    <property name="meta.media.0.codec.height">480</property>
    <property name="meta.media.0.codec.rotate">0</property>
    <property name="meta.media.0.codec.pix_fmt">yuv420p</property>
    <property name="meta.media.0.codec.sample_aspect_ratio">0</property>
    <property name="meta.media.0.codec.colorspace">709</property>
    <property name="meta.media.0.codec.color_trc">1</property>
    <property name="meta.media.0.codec.name">h264</property>
    <property name="meta.media.0.codec.long_name">H.264 / AVC / MPEG-4 AVC / MPEG-4 part 10</property>
    <property name="meta.media.0.codec.bit_rate">1483593</property>
    <property name="meta.attr.0.stream.vendor_id.markup">[0][0][0][0]</property>
    <property name="meta.media.1.stream.type">audio</property>
    <property name="meta.media.1.codec.sample_fmt">fltp</property>
    <property name="meta.media.1.codec.sample_rate">44100</property>
    <property name="meta.media.1.codec.channels">2</property>
    <property name="meta.media.1.codec.name">aac</property>
    <property name="meta.media.1.codec.long_name">AAC (Advanced Audio Coding)</property>
    <property name="meta.media.1.codec.bit_rate">72424</property>
    <property name="meta.attr.1.stream.vendor_id.markup">[0][0][0][0]</property>
    <property name="meta.attr.major_brand.markup">mp42</property>
    <property name="meta.attr.minor_version.markup">0</property>
    <property name="meta.attr.compatible_brands.markup">mp42isom</property>
    <property name="seekable">1</property>
    <property name="meta.media.sample_aspect_num">1</property>
    <property name="meta.media.sample_aspect_den">1</property>
    <property name="audio_index">1</property>
    <property name="video_index">0</property>
    <property name="creation_time">2025-03-30T14:43:15</property>
    <property name="vstream">0</property>
    <property name="meta.media.frame_rate_num">12375</property>
    <property name="meta.media.frame_rate_den">412</property>
    <property name="meta.media.colorspace">709</property>
    <property name="meta.media.color_trc">1</property>
    <property name="meta.media.has_b_frames">0</property>
    <property name="meta.media.width">848</property>
    <property name="meta.media.height">480</property>
    <property name="meta.media.aspect_ratio">1</property>
    <property name="meta.media.color_range">mpeg</property>
    <property name="astream">0</property>
    <property name="shotcut:hash">a1fddf1bd5f42176097a34edc5ee7956</property>
    <property name="xml">was here</property>
    <property name="meta.media.top_field_first">0</property>
    <property name="meta.media.progressive">1</property>
    <property name="shotcut:caption">18.mp4</property>
  </chain>
  <tractor id="tractor16" in="00:00:00.000" out="00:00:00.833">
    <property name="shotcut:transition">lumaMix</property>
    <track producer="chain16" in="00:00:57.875" out="00:00:58.708"/>
    <track producer="chain17" in="00:00:00.000" out="00:00:00.833"/>
    <transition id="transition32" out="00:00:00.833">
      <property name="a_track">0</property>
      <property name="b_track">1</property>
      <property name="factory">loader</property>
      <property name="mlt_service">luma</property>
      <property name="alpha_over">1</property>
      <property name="fix_background_alpha">1</property>
    </transition>
    <transition id="transition33" out="00:00:00.833">
      <property name="a_track">0</property>
      <property name="b_track">1</property>
      <property name="mlt_service">mix</property>
      <property name="start">-1</property>
      <property name="accepts_blanks">1</property>
    </transition>
  </tractor>
  <chain id="chain18" out="00:00:05.333">
    <property name="length">00:00:05.375</property>
    <property name="eof">pause</property>
    <property name="resource">D:/projects/unreal_engine_5/PlantsVsZombies/Main_menu_vids/19.mp4</property>
    <property name="mlt_service">avformat-novalidate</property>
    <property name="meta.media.nb_streams">2</property>
    <property name="meta.media.0.stream.type">video</property>
    <property name="meta.media.0.stream.frame_rate">30</property>
    <property name="meta.media.0.stream.sample_aspect_ratio">0</property>
    <property name="meta.media.0.codec.width">848</property>
    <property name="meta.media.0.codec.height">480</property>
    <property name="meta.media.0.codec.rotate">0</property>
    <property name="meta.media.0.codec.pix_fmt">yuv420p</property>
    <property name="meta.media.0.codec.sample_aspect_ratio">0</property>
    <property name="meta.media.0.codec.colorspace">709</property>
    <property name="meta.media.0.codec.color_trc">1</property>
    <property name="meta.media.0.codec.name">h264</property>
    <property name="meta.media.0.codec.long_name">H.264 / AVC / MPEG-4 AVC / MPEG-4 part 10</property>
    <property name="meta.media.0.codec.bit_rate">1336916</property>
    <property name="meta.attr.0.stream.vendor_id.markup">[0][0][0][0]</property>
    <property name="meta.media.1.stream.type">audio</property>
    <property name="meta.media.1.codec.sample_fmt">fltp</property>
    <property name="meta.media.1.codec.sample_rate">44100</property>
    <property name="meta.media.1.codec.channels">2</property>
    <property name="meta.media.1.codec.name">aac</property>
    <property name="meta.media.1.codec.long_name">AAC (Advanced Audio Coding)</property>
    <property name="meta.media.1.codec.bit_rate">63996</property>
    <property name="meta.attr.1.stream.vendor_id.markup">[0][0][0][0]</property>
    <property name="meta.attr.major_brand.markup">mp42</property>
    <property name="meta.attr.minor_version.markup">0</property>
    <property name="meta.attr.compatible_brands.markup">mp42isom</property>
    <property name="seekable">1</property>
    <property name="meta.media.sample_aspect_num">1</property>
    <property name="meta.media.sample_aspect_den">1</property>
    <property name="audio_index">1</property>
    <property name="video_index">0</property>
    <property name="creation_time">2025-03-30T14:43:15</property>
    <property name="vstream">0</property>
    <property name="meta.media.frame_rate_num">30</property>
    <property name="meta.media.frame_rate_den">1</property>
    <property name="meta.media.colorspace">709</property>
    <property name="meta.media.color_trc">1</property>
    <property name="meta.media.has_b_frames">0</property>
    <property name="meta.media.width">848</property>
    <property name="meta.media.height">480</property>
    <property name="meta.media.aspect_ratio">1</property>
    <property name="meta.media.color_range">mpeg</property>
    <property name="astream">0</property>
    <property name="shotcut:hash">574ea43805f3768b70545b2d72fe5243</property>
    <property name="xml">was here</property>
    <property name="meta.media.top_field_first">0</property>
    <property name="meta.media.progressive">1</property>
    <property name="shotcut:caption">19.mp4</property>
  </chain>
  <tractor id="tractor17" in="00:00:00.000" out="00:00:00.792">
    <property name="shotcut:transition">lumaMix</property>
    <track producer="chain17" in="00:00:21.125" out="00:00:21.917"/>
    <track producer="chain18" in="00:00:00.000" out="00:00:00.792"/>
    <transition id="transition34" out="00:00:00.792">
      <property name="a_track">0</property>
      <property name="b_track">1</property>
      <property name="factory">loader</property>
      <property name="mlt_service">luma</property>
      <property name="alpha_over">1</property>
      <property name="fix_background_alpha">1</property>
    </transition>
    <transition id="transition35" out="00:00:00.792">
      <property name="a_track">0</property>
      <property name="b_track">1</property>
      <property name="mlt_service">mix</property>
      <property name="start">-1</property>
      <property name="accepts_blanks">1</property>
    </transition>
  </tractor>
  <chain id="chain19" out="00:00:13.500">
    <property name="length">00:00:13.542</property>
    <property name="eof">pause</property>
    <property name="resource">D:/projects/unreal_engine_5/PlantsVsZombies/Main_menu_vids/20.mp4</property>
    <property name="mlt_service">avformat-novalidate</property>
    <property name="meta.media.nb_streams">2</property>
    <property name="meta.media.0.stream.type">video</property>
    <property name="meta.media.0.stream.frame_rate">29.9259</property>
    <property name="meta.media.0.stream.sample_aspect_ratio">0</property>
    <property name="meta.media.0.codec.width">480</property>
    <property name="meta.media.0.codec.height">848</property>
    <property name="meta.media.0.codec.rotate">270</property>
    <property name="meta.media.0.codec.pix_fmt">yuv420p</property>
    <property name="meta.media.0.codec.sample_aspect_ratio">0</property>
    <property name="meta.media.0.codec.colorspace">709</property>
    <property name="meta.media.0.codec.color_trc">1</property>
    <property name="meta.media.0.codec.name">h264</property>
    <property name="meta.media.0.codec.long_name">H.264 / AVC / MPEG-4 AVC / MPEG-4 part 10</property>
    <property name="meta.media.0.codec.bit_rate">1468176</property>
    <property name="meta.attr.0.stream.vendor_id.markup">[0][0][0][0]</property>
    <property name="meta.media.1.stream.type">audio</property>
    <property name="meta.media.1.codec.sample_fmt">fltp</property>
    <property name="meta.media.1.codec.sample_rate">44100</property>
    <property name="meta.media.1.codec.channels">2</property>
    <property name="meta.media.1.codec.name">aac</property>
    <property name="meta.media.1.codec.long_name">AAC (Advanced Audio Coding)</property>
    <property name="meta.media.1.codec.bit_rate">62009</property>
    <property name="meta.attr.1.stream.vendor_id.markup">[0][0][0][0]</property>
    <property name="meta.attr.major_brand.markup">mp42</property>
    <property name="meta.attr.minor_version.markup">0</property>
    <property name="meta.attr.compatible_brands.markup">mp42isom</property>
    <property name="seekable">1</property>
    <property name="meta.media.sample_aspect_num">1</property>
    <property name="meta.media.sample_aspect_den">1</property>
    <property name="audio_index">1</property>
    <property name="video_index">0</property>
    <property name="creation_time">2025-03-30T14:43:15</property>
    <property name="vstream">0</property>
    <property name="meta.media.frame_rate_num">808</property>
    <property name="meta.media.frame_rate_den">27</property>
    <property name="meta.media.colorspace">709</property>
    <property name="meta.media.color_trc">1</property>
    <property name="meta.media.has_b_frames">0</property>
    <property name="meta.media.width">848</property>
    <property name="meta.media.height">480</property>
    <property name="meta.media.color_range">mpeg</property>
    <property name="astream">0</property>
    <property name="shotcut:hash">8ddc91f8ae916caea15753bd94362553</property>
    <property name="meta.media.top_field_first">0</property>
    <property name="meta.media.progressive">1</property>
    <property name="xml">was here</property>
    <property name="shotcut:caption">20.mp4</property>
  </chain>
  <tractor id="tractor18" in="00:00:00.000" out="00:00:00.667">
    <property name="shotcut:transition">lumaMix</property>
    <track producer="chain18" in="00:00:04.667" out="00:00:05.333"/>
    <track producer="chain19" in="00:00:00.000" out="00:00:00.667"/>
    <transition id="transition36" out="00:00:00.667">
      <property name="a_track">0</property>
      <property name="b_track">1</property>
      <property name="factory">loader</property>
      <property name="mlt_service">luma</property>
      <property name="alpha_over">1</property>
      <property name="fix_background_alpha">1</property>
    </transition>
    <transition id="transition37" out="00:00:00.667">
      <property name="a_track">0</property>
      <property name="b_track">1</property>
      <property name="mlt_service">mix</property>
      <property name="start">-1</property>
      <property name="accepts_blanks">1</property>
    </transition>
  </tractor>
  <chain id="chain20" out="00:00:06.458">
    <property name="length">00:00:06.500</property>
    <property name="eof">pause</property>
    <property name="resource">D:/projects/unreal_engine_5/PlantsVsZombies/Main_menu_vids/21.mp4</property>
    <property name="mlt_service">avformat-novalidate</property>
    <property name="meta.media.nb_streams">2</property>
    <property name="meta.media.0.stream.type">video</property>
    <property name="meta.media.0.stream.frame_rate">28.6082</property>
    <property name="meta.media.0.stream.sample_aspect_ratio">0</property>
    <property name="meta.media.0.codec.width">480</property>
    <property name="meta.media.0.codec.height">848</property>
    <property name="meta.media.0.codec.rotate">270</property>
    <property name="meta.media.0.codec.pix_fmt">yuv420p</property>
    <property name="meta.media.0.codec.sample_aspect_ratio">0</property>
    <property name="meta.media.0.codec.colorspace">709</property>
    <property name="meta.media.0.codec.color_trc">1</property>
    <property name="meta.media.0.codec.name">h264</property>
    <property name="meta.media.0.codec.long_name">H.264 / AVC / MPEG-4 AVC / MPEG-4 part 10</property>
    <property name="meta.media.0.codec.bit_rate">1391977</property>
    <property name="meta.attr.0.stream.vendor_id.markup">[0][0][0][0]</property>
    <property name="meta.media.1.stream.type">audio</property>
    <property name="meta.media.1.codec.sample_fmt">fltp</property>
    <property name="meta.media.1.codec.sample_rate">44100</property>
    <property name="meta.media.1.codec.channels">2</property>
    <property name="meta.media.1.codec.name">aac</property>
    <property name="meta.media.1.codec.long_name">AAC (Advanced Audio Coding)</property>
    <property name="meta.media.1.codec.bit_rate">63118</property>
    <property name="meta.attr.1.stream.vendor_id.markup">[0][0][0][0]</property>
    <property name="meta.attr.major_brand.markup">mp42</property>
    <property name="meta.attr.minor_version.markup">0</property>
    <property name="meta.attr.compatible_brands.markup">mp42isom</property>
    <property name="seekable">1</property>
    <property name="meta.media.sample_aspect_num">1</property>
    <property name="meta.media.sample_aspect_den">1</property>
    <property name="audio_index">1</property>
    <property name="video_index">0</property>
    <property name="creation_time">2025-03-30T14:43:58</property>
    <property name="vstream">0</property>
    <property name="meta.media.frame_rate_num">2775</property>
    <property name="meta.media.frame_rate_den">97</property>
    <property name="meta.media.colorspace">709</property>
    <property name="meta.media.color_trc">1</property>
    <property name="meta.media.has_b_frames">0</property>
    <property name="meta.media.width">848</property>
    <property name="meta.media.height">480</property>
    <property name="meta.media.color_range">mpeg</property>
    <property name="astream">0</property>
    <property name="shotcut:hash">8869429812f1b08a79acc64615d1ba01</property>
    <property name="meta.media.top_field_first">0</property>
    <property name="meta.media.progressive">1</property>
    <property name="xml">was here</property>
    <property name="shotcut:caption">21.mp4</property>
  </chain>
  <tractor id="tractor19" in="00:00:00.000" out="00:00:00.750">
    <property name="shotcut:transition">lumaMix</property>
    <track producer="chain19" in="00:00:12.750" out="00:00:13.500"/>
    <track producer="chain20" in="00:00:00.000" out="00:00:00.750"/>
    <transition id="transition38" out="00:00:00.750">
      <property name="a_track">0</property>
      <property name="b_track">1</property>
      <property name="factory">loader</property>
      <property name="mlt_service">luma</property>
      <property name="alpha_over">1</property>
      <property name="fix_background_alpha">1</property>
    </transition>
    <transition id="transition39" out="00:00:00.750">
      <property name="a_track">0</property>
      <property name="b_track">1</property>
      <property name="mlt_service">mix</property>
      <property name="start">-1</property>
      <property name="accepts_blanks">1</property>
    </transition>
  </tractor>
  <chain id="chain21" out="00:00:04.875">
    <property name="length">00:00:04.917</property>
    <property name="eof">pause</property>
    <property name="resource">D:/projects/unreal_engine_5/PlantsVsZombies/Main_menu_vids/22.mp4</property>
    <property name="mlt_service">avformat-novalidate</property>
    <property name="meta.media.nb_streams">2</property>
    <property name="meta.media.0.stream.type">video</property>
    <property name="meta.media.0.stream.frame_rate">25</property>
    <property name="meta.media.0.stream.sample_aspect_ratio">1</property>
    <property name="meta.media.0.codec.width">1920</property>
    <property name="meta.media.0.codec.height">1080</property>
    <property name="meta.media.0.codec.rotate">0</property>
    <property name="meta.media.0.codec.pix_fmt">yuv420p</property>
    <property name="meta.media.0.codec.sample_aspect_ratio">1</property>
    <property name="meta.media.0.codec.colorspace">709</property>
    <property name="meta.media.0.codec.color_trc">1</property>
    <property name="meta.media.0.codec.name">h264</property>
    <property name="meta.media.0.codec.long_name">H.264 / AVC / MPEG-4 AVC / MPEG-4 part 10</property>
    <property name="meta.media.0.codec.bit_rate">5207736</property>
    <property name="meta.attr.0.stream.handler_name.markup">VideoHandler</property>
    <property name="meta.attr.0.stream.vendor_id.markup">[0][0][0][0]</property>
    <property name="meta.media.1.stream.type">audio</property>
    <property name="meta.media.1.codec.sample_fmt">fltp</property>
    <property name="meta.media.1.codec.sample_rate">48000</property>
    <property name="meta.media.1.codec.channels">2</property>
    <property name="meta.media.1.codec.name">aac</property>
    <property name="meta.media.1.codec.long_name">AAC (Advanced Audio Coding)</property>
    <property name="meta.media.1.codec.bit_rate">388994</property>
    <property name="meta.attr.1.stream.handler_name.markup">SoundHandler</property>
    <property name="meta.attr.1.stream.vendor_id.markup">[0][0][0][0]</property>
    <property name="meta.attr.major_brand.markup">isom</property>
    <property name="meta.attr.minor_version.markup">512</property>
    <property name="meta.attr.compatible_brands.markup">isomiso2avc1mp41</property>
    <property name="meta.attr.encoder.markup">Lavf60.16.100</property>
    <property name="seekable">1</property>
    <property name="meta.media.sample_aspect_num">1</property>
    <property name="meta.media.sample_aspect_den">1</property>
    <property name="audio_index">1</property>
    <property name="video_index">0</property>
    <property name="creation_time">2025-03-30T15:28:40</property>
    <property name="vstream">0</property>
    <property name="meta.media.frame_rate_num">25</property>
    <property name="meta.media.frame_rate_den">1</property>
    <property name="meta.media.colorspace">709</property>
    <property name="meta.media.color_trc">1</property>
    <property name="meta.media.has_b_frames">2</property>
    <property name="meta.media.width">1920</property>
    <property name="meta.media.height">1080</property>
    <property name="meta.media.aspect_ratio">1</property>
    <property name="meta.media.color_range">mpeg</property>
    <property name="astream">0</property>
    <property name="shotcut:hash">3bef504b5fa689cf0c181c6b3fac0a88</property>
    <property name="meta.media.top_field_first">0</property>
    <property name="meta.media.progressive">1</property>
    <property name="xml">was here</property>
    <property name="shotcut:caption">22.mp4</property>
  </chain>
  <tractor id="tractor20" in="00:00:00.000" out="00:00:00.625">
    <property name="shotcut:transition">lumaMix</property>
    <track producer="chain20" in="00:00:05.833" out="00:00:06.458"/>
    <track producer="chain21" in="00:00:00.000" out="00:00:00.625"/>
    <transition id="transition40" out="00:00:00.625">
      <property name="a_track">0</property>
      <property name="b_track">1</property>
      <property name="factory">loader</property>
      <property name="mlt_service">luma</property>
      <property name="alpha_over">1</property>
      <property name="fix_background_alpha">1</property>
    </transition>
    <transition id="transition41" out="00:00:00.625">
      <property name="a_track">0</property>
      <property name="b_track">1</property>
      <property name="mlt_service">mix</property>
      <property name="start">-1</property>
      <property name="accepts_blanks">1</property>
    </transition>
  </tractor>
  <chain id="chain22" out="00:00:17.458">
    <property name="length">00:00:17.500</property>
    <property name="eof">pause</property>
    <property name="resource">D:/projects/unreal_engine_5/PlantsVsZombies/Main_menu_vids/23.mp4</property>
    <property name="mlt_service">avformat-novalidate</property>
    <property name="meta.media.nb_streams">2</property>
    <property name="meta.media.0.stream.type">video</property>
    <property name="meta.media.0.stream.frame_rate">29.8282</property>
    <property name="meta.media.0.stream.sample_aspect_ratio">0</property>
    <property name="meta.media.0.codec.width">848</property>
    <property name="meta.media.0.codec.height">480</property>
    <property name="meta.media.0.codec.rotate">180</property>
    <property name="meta.media.0.codec.pix_fmt">yuv420p</property>
    <property name="meta.media.0.codec.sample_aspect_ratio">0</property>
    <property name="meta.media.0.codec.colorspace">709</property>
    <property name="meta.media.0.codec.color_trc">1</property>
    <property name="meta.media.0.codec.name">h264</property>
    <property name="meta.media.0.codec.long_name">H.264 / AVC / MPEG-4 AVC / MPEG-4 part 10</property>
    <property name="meta.media.0.codec.bit_rate">1467236</property>
    <property name="meta.attr.0.stream.vendor_id.markup">[0][0][0][0]</property>
    <property name="meta.media.1.stream.type">audio</property>
    <property name="meta.media.1.codec.sample_fmt">fltp</property>
    <property name="meta.media.1.codec.sample_rate">44100</property>
    <property name="meta.media.1.codec.channels">2</property>
    <property name="meta.media.1.codec.name">aac</property>
    <property name="meta.media.1.codec.long_name">AAC (Advanced Audio Coding)</property>
    <property name="meta.media.1.codec.bit_rate">63804</property>
    <property name="meta.attr.1.stream.vendor_id.markup">[0][0][0][0]</property>
    <property name="meta.attr.major_brand.markup">mp42</property>
    <property name="meta.attr.minor_version.markup">0</property>
    <property name="meta.attr.compatible_brands.markup">mp42isom</property>
    <property name="seekable">1</property>
    <property name="meta.media.sample_aspect_num">1</property>
    <property name="meta.media.sample_aspect_den">1</property>
    <property name="audio_index">1</property>
    <property name="video_index">0</property>
    <property name="creation_time">2025-03-30T14:43:58</property>
    <property name="vstream">0</property>
    <property name="meta.media.frame_rate_num">7815</property>
    <property name="meta.media.frame_rate_den">262</property>
    <property name="meta.media.colorspace">709</property>
    <property name="meta.media.color_trc">1</property>
    <property name="meta.media.has_b_frames">0</property>
    <property name="meta.media.width">848</property>
    <property name="meta.media.height">480</property>
    <property name="meta.media.aspect_ratio">1</property>
    <property name="meta.media.color_range">mpeg</property>
    <property name="astream">0</property>
    <property name="shotcut:hash">54bcbcb63ae2e24f23fb6df42e84dcea</property>
    <property name="xml">was here</property>
    <property name="meta.media.top_field_first">0</property>
    <property name="meta.media.progressive">1</property>
    <property name="shotcut:caption">23.mp4</property>
  </chain>
  <tractor id="tractor21" in="00:00:00.000" out="00:00:00.708">
    <property name="shotcut:transition">lumaMix</property>
    <track producer="chain21" in="00:00:04.167" out="00:00:04.875"/>
    <track producer="chain22" in="00:00:00.000" out="00:00:00.708"/>
    <transition id="transition42" out="00:00:00.708">
      <property name="a_track">0</property>
      <property name="b_track">1</property>
      <property name="factory">loader</property>
      <property name="mlt_service">luma</property>
      <property name="alpha_over">1</property>
      <property name="fix_background_alpha">1</property>
    </transition>
    <transition id="transition43" out="00:00:00.708">
      <property name="a_track">0</property>
      <property name="b_track">1</property>
      <property name="mlt_service">mix</property>
      <property name="start">-1</property>
      <property name="accepts_blanks">1</property>
    </transition>
  </tractor>
  <chain id="chain23" out="00:00:22.167">
    <property name="length">00:00:22.208</property>
    <property name="eof">pause</property>
    <property name="resource">D:/projects/unreal_engine_5/PlantsVsZombies/Main_menu_vids/24.mp4</property>
    <property name="mlt_service">avformat-novalidate</property>
    <property name="meta.media.nb_streams">2</property>
    <property name="meta.media.0.stream.type">video</property>
    <property name="meta.media.0.stream.frame_rate">24</property>
    <property name="meta.media.0.stream.sample_aspect_ratio">1</property>
    <property name="meta.media.0.codec.width">1920</property>
    <property name="meta.media.0.codec.height">1080</property>
    <property name="meta.media.0.codec.rotate">0</property>
    <property name="meta.media.0.codec.pix_fmt">yuv420p</property>
    <property name="meta.media.0.codec.sample_aspect_ratio">1</property>
    <property name="meta.media.0.codec.colorspace">709</property>
    <property name="meta.media.0.codec.color_trc">1</property>
    <property name="meta.media.0.codec.name">h264</property>
    <property name="meta.media.0.codec.long_name">H.264 / AVC / MPEG-4 AVC / MPEG-4 part 10</property>
    <property name="meta.media.0.codec.bit_rate">7520210</property>
    <property name="meta.attr.0.stream.handler_name.markup">VideoHandler</property>
    <property name="meta.attr.0.stream.vendor_id.markup">[0][0][0][0]</property>
    <property name="meta.media.1.stream.type">audio</property>
    <property name="meta.media.1.codec.sample_fmt">fltp</property>
    <property name="meta.media.1.codec.sample_rate">48000</property>
    <property name="meta.media.1.codec.channels">2</property>
    <property name="meta.media.1.codec.name">aac</property>
    <property name="meta.media.1.codec.long_name">AAC (Advanced Audio Coding)</property>
    <property name="meta.media.1.codec.bit_rate">2280</property>
    <property name="meta.attr.1.stream.handler_name.markup">SoundHandler</property>
    <property name="meta.attr.1.stream.vendor_id.markup">[0][0][0][0]</property>
    <property name="meta.attr.major_brand.markup">isom</property>
    <property name="meta.attr.minor_version.markup">512</property>
    <property name="meta.attr.compatible_brands.markup">isomiso2avc1mp41</property>
    <property name="meta.attr.encoder.markup">Lavf60.16.100</property>
    <property name="seekable">1</property>
    <property name="meta.media.sample_aspect_num">1</property>
    <property name="meta.media.sample_aspect_den">1</property>
    <property name="audio_index">1</property>
    <property name="video_index">0</property>
    <property name="creation_time">2025-03-30T15:17:26</property>
    <property name="vstream">0</property>
    <property name="meta.media.frame_rate_num">24</property>
    <property name="meta.media.frame_rate_den">1</property>
    <property name="meta.media.colorspace">709</property>
    <property name="meta.media.color_trc">1</property>
    <property name="meta.media.has_b_frames">2</property>
    <property name="meta.media.width">1920</property>
    <property name="meta.media.height">1080</property>
    <property name="meta.media.aspect_ratio">1</property>
    <property name="meta.media.color_range">mpeg</property>
    <property name="astream">0</property>
    <property name="shotcut:hash">3fb5df69f0763a51e98d1683019ca31d</property>
    <property name="xml">was here</property>
    <property name="meta.media.top_field_first">0</property>
    <property name="meta.media.progressive">1</property>
    <property name="shotcut:caption">24.mp4</property>
  </chain>
  <tractor id="tractor22" in="00:00:00.000" out="00:00:00.875">
    <property name="shotcut:transition">lumaMix</property>
    <track producer="chain22" in="00:00:16.583" out="00:00:17.458"/>
    <track producer="chain23" in="00:00:00.000" out="00:00:00.875"/>
    <transition id="transition44" out="00:00:00.875">
      <property name="a_track">0</property>
      <property name="b_track">1</property>
      <property name="factory">loader</property>
      <property name="mlt_service">luma</property>
      <property name="alpha_over">1</property>
      <property name="fix_background_alpha">1</property>
    </transition>
    <transition id="transition45" out="00:00:00.875">
      <property name="a_track">0</property>
      <property name="b_track">1</property>
      <property name="mlt_service">mix</property>
      <property name="start">-1</property>
      <property name="accepts_blanks">1</property>
    </transition>
  </tractor>
  <chain id="chain24" out="00:00:16.958">
    <property name="length">00:00:17.000</property>
    <property name="eof">pause</property>
    <property name="resource">D:/projects/unreal_engine_5/PlantsVsZombies/Main_menu_vids/25.mp4</property>
    <property name="mlt_service">avformat-novalidate</property>
    <property name="meta.media.nb_streams">2</property>
    <property name="meta.media.0.stream.type">video</property>
    <property name="meta.media.0.stream.frame_rate">59.5038</property>
    <property name="meta.media.0.stream.sample_aspect_ratio">0</property>
    <property name="meta.media.0.codec.width">848</property>
    <property name="meta.media.0.codec.height">478</property>
    <property name="meta.media.0.codec.rotate">0</property>
    <property name="meta.media.0.codec.pix_fmt">yuv420p</property>
    <property name="meta.media.0.codec.sample_aspect_ratio">0</property>
    <property name="meta.media.0.codec.colorspace">709</property>
    <property name="meta.media.0.codec.color_trc">1</property>
    <property name="meta.media.0.codec.name">h264</property>
    <property name="meta.media.0.codec.long_name">H.264 / AVC / MPEG-4 AVC / MPEG-4 part 10</property>
    <property name="meta.media.0.codec.bit_rate">1304459</property>
    <property name="meta.attr.0.stream.vendor_id.markup">[0][0][0][0]</property>
    <property name="meta.media.1.stream.type">audio</property>
    <property name="meta.media.1.codec.sample_fmt">fltp</property>
    <property name="meta.media.1.codec.sample_rate">48000</property>
    <property name="meta.media.1.codec.channels">2</property>
    <property name="meta.media.1.codec.name">aac</property>
    <property name="meta.media.1.codec.long_name">AAC (Advanced Audio Coding)</property>
    <property name="meta.media.1.codec.bit_rate">191812</property>
    <property name="meta.attr.1.stream.vendor_id.markup">[0][0][0][0]</property>
    <property name="meta.attr.major_brand.markup">mp42</property>
    <property name="meta.attr.minor_version.markup">0</property>
    <property name="meta.attr.compatible_brands.markup">mp42isom</property>
    <property name="seekable">1</property>
    <property name="meta.media.sample_aspect_num">1</property>
    <property name="meta.media.sample_aspect_den">1</property>
    <property name="audio_index">1</property>
    <property name="video_index">0</property>
    <property name="creation_time">2025-03-18T22:33:31</property>
    <property name="vstream">0</property>
    <property name="meta.media.frame_rate_num">674000</property>
    <property name="meta.media.frame_rate_den">11327</property>
    <property name="meta.media.colorspace">709</property>
    <property name="meta.media.color_trc">1</property>
    <property name="meta.media.has_b_frames">0</property>
    <property name="meta.media.width">848</property>
    <property name="meta.media.height">478</property>
    <property name="meta.media.aspect_ratio">1</property>
    <property name="meta.media.color_range">mpeg</property>
    <property name="astream">0</property>
    <property name="shotcut:hash">b623d0d763517fa122afa417f96566ec</property>
    <property name="xml">was here</property>
    <property name="meta.media.variable_frame_rate">1</property>
    <property name="meta.media.top_field_first">0</property>
    <property name="meta.media.progressive">1</property>
    <property name="shotcut:caption">25.mp4</property>
  </chain>
  <tractor id="tractor23" in="00:00:00.000" out="00:00:00.917">
    <property name="shotcut:transition">lumaMix</property>
    <track producer="chain23" in="00:00:21.250" out="00:00:22.167"/>
    <track producer="chain24" in="00:00:00.000" out="00:00:00.917"/>
    <transition id="transition46" out="00:00:00.917">
      <property name="a_track">0</property>
      <property name="b_track">1</property>
      <property name="factory">loader</property>
      <property name="mlt_service">luma</property>
      <property name="alpha_over">1</property>
      <property name="fix_background_alpha">1</property>
    </transition>
    <transition id="transition47" out="00:00:00.917">
      <property name="a_track">0</property>
      <property name="b_track">1</property>
      <property name="mlt_service">mix</property>
      <property name="start">-1</property>
      <property name="accepts_blanks">1</property>
    </transition>
  </tractor>
  <chain id="chain25" out="00:00:42.000">
    <property name="length">00:00:42.042</property>
    <property name="eof">pause</property>
    <property name="resource">D:/projects/unreal_engine_5/PlantsVsZombies/Main_menu_vids/26.mp4</property>
    <property name="mlt_service">avformat-novalidate</property>
    <property name="meta.media.nb_streams">2</property>
    <property name="meta.media.0.stream.type">video</property>
    <property name="meta.media.0.stream.frame_rate">29.9762</property>
    <property name="meta.media.0.stream.sample_aspect_ratio">0</property>
    <property name="meta.media.0.codec.width">480</property>
    <property name="meta.media.0.codec.height">848</property>
    <property name="meta.media.0.codec.rotate">270</property>
    <property name="meta.media.0.codec.pix_fmt">yuv420p</property>
    <property name="meta.media.0.codec.sample_aspect_ratio">0</property>
    <property name="meta.media.0.codec.colorspace">709</property>
    <property name="meta.media.0.codec.color_trc">1</property>
    <property name="meta.media.0.codec.name">h264</property>
    <property name="meta.media.0.codec.long_name">H.264 / AVC / MPEG-4 AVC / MPEG-4 part 10</property>
    <property name="meta.media.0.codec.bit_rate">1480058</property>
    <property name="meta.attr.0.stream.vendor_id.markup">[0][0][0][0]</property>
    <property name="meta.media.1.stream.type">audio</property>
    <property name="meta.media.1.codec.sample_fmt">fltp</property>
    <property name="meta.media.1.codec.sample_rate">44100</property>
    <property name="meta.media.1.codec.channels">2</property>
    <property name="meta.media.1.codec.name">aac</property>
    <property name="meta.media.1.codec.long_name">AAC (Advanced Audio Coding)</property>
    <property name="meta.media.1.codec.bit_rate">62873</property>
    <property name="meta.attr.1.stream.vendor_id.markup">[0][0][0][0]</property>
    <property name="meta.attr.major_brand.markup">mp42</property>
    <property name="meta.attr.minor_version.markup">0</property>
    <property name="meta.attr.compatible_brands.markup">mp42isom</property>
    <property name="seekable">1</property>
    <property name="meta.media.sample_aspect_num">1</property>
    <property name="meta.media.sample_aspect_den">1</property>
    <property name="audio_index">1</property>
    <property name="video_index">0</property>
    <property name="creation_time">2025-03-30T14:43:16</property>
    <property name="vstream">0</property>
    <property name="meta.media.frame_rate_num">1259</property>
    <property name="meta.media.frame_rate_den">42</property>
    <property name="meta.media.colorspace">709</property>
    <property name="meta.media.color_trc">1</property>
    <property name="meta.media.has_b_frames">0</property>
    <property name="meta.media.width">848</property>
    <property name="meta.media.height">480</property>
    <property name="meta.media.color_range">mpeg</property>
    <property name="astream">0</property>
    <property name="shotcut:hash">7b0877b136368db85410ac56de72338b</property>
    <property name="xml">was here</property>
    <property name="meta.media.top_field_first">0</property>
    <property name="meta.media.progressive">1</property>
    <property name="shotcut:caption">26.mp4</property>
  </chain>
  <tractor id="tractor24" in="00:00:00.000" out="00:00:00.917">
    <property name="shotcut:transition">lumaMix</property>
    <track producer="chain24" in="00:00:16.042" out="00:00:16.958"/>
    <track producer="chain25" in="00:00:00.000" out="00:00:00.917"/>
    <transition id="transition48" out="00:00:00.917">
      <property name="a_track">0</property>
      <property name="b_track">1</property>
      <property name="factory">loader</property>
      <property name="mlt_service">luma</property>
      <property name="alpha_over">1</property>
      <property name="fix_background_alpha">1</property>
    </transition>
    <transition id="transition49" out="00:00:00.917">
      <property name="a_track">0</property>
      <property name="b_track">1</property>
      <property name="mlt_service">mix</property>
      <property name="start">-1</property>
      <property name="accepts_blanks">1</property>
    </transition>
  </tractor>
  <chain id="chain26" out="00:00:12.667">
    <property name="length">00:00:12.708</property>
    <property name="eof">pause</property>
    <property name="resource">D:/projects/unreal_engine_5/PlantsVsZombies/Main_menu_vids/27.mp4</property>
    <property name="mlt_service">avformat-novalidate</property>
    <property name="meta.media.nb_streams">2</property>
    <property name="meta.media.0.stream.type">video</property>
    <property name="meta.media.0.stream.frame_rate">29.9208</property>
    <property name="meta.media.0.stream.sample_aspect_ratio">0</property>
    <property name="meta.media.0.codec.width">480</property>
    <property name="meta.media.0.codec.height">848</property>
    <property name="meta.media.0.codec.rotate">270</property>
    <property name="meta.media.0.codec.pix_fmt">yuv420p</property>
    <property name="meta.media.0.codec.sample_aspect_ratio">0</property>
    <property name="meta.media.0.codec.colorspace">709</property>
    <property name="meta.media.0.codec.color_trc">1</property>
    <property name="meta.media.0.codec.name">h264</property>
    <property name="meta.media.0.codec.long_name">H.264 / AVC / MPEG-4 AVC / MPEG-4 part 10</property>
    <property name="meta.media.0.codec.bit_rate">1475159</property>
    <property name="meta.attr.0.stream.vendor_id.markup">[0][0][0][0]</property>
    <property name="meta.media.1.stream.type">audio</property>
    <property name="meta.media.1.codec.sample_fmt">fltp</property>
    <property name="meta.media.1.codec.sample_rate">44100</property>
    <property name="meta.media.1.codec.channels">2</property>
    <property name="meta.media.1.codec.name">aac</property>
    <property name="meta.media.1.codec.long_name">AAC (Advanced Audio Coding)</property>
    <property name="meta.media.1.codec.bit_rate">62399</property>
    <property name="meta.attr.1.stream.vendor_id.markup">[0][0][0][0]</property>
    <property name="meta.attr.major_brand.markup">mp42</property>
    <property name="meta.attr.minor_version.markup">0</property>
    <property name="meta.attr.compatible_brands.markup">mp42isom</property>
    <property name="seekable">1</property>
    <property name="meta.media.sample_aspect_num">1</property>
    <property name="meta.media.sample_aspect_den">1</property>
    <property name="audio_index">1</property>
    <property name="video_index">0</property>
    <property name="creation_time">2025-03-30T14:43:58</property>
    <property name="vstream">0</property>
    <property name="meta.media.frame_rate_num">11340</property>
    <property name="meta.media.frame_rate_den">379</property>
    <property name="meta.media.colorspace">709</property>
    <property name="meta.media.color_trc">1</property>
    <property name="meta.media.has_b_frames">0</property>
    <property name="meta.media.width">848</property>
    <property name="meta.media.height">480</property>
    <property name="meta.media.color_range">mpeg</property>
    <property name="astream">0</property>
    <property name="shotcut:hash">ddb09faf8e1a360ac7e24fe514d6e590</property>
    <property name="xml">was here</property>
    <property name="meta.media.top_field_first">0</property>
    <property name="meta.media.progressive">1</property>
    <property name="shotcut:caption">27.mp4</property>
  </chain>
  <tractor id="tractor25" in="00:00:00.000" out="00:00:01.500">
    <property name="shotcut:transition">lumaMix</property>
    <track producer="chain25" in="00:00:24.167" out="00:00:25.667"/>
    <track producer="chain26" in="00:00:00.000" out="00:00:01.500"/>
    <transition id="transition50" out="00:00:01.500">
      <property name="a_track">0</property>
      <property name="b_track">1</property>
      <property name="factory">loader</property>
      <property name="mlt_service">luma</property>
      <property name="alpha_over">1</property>
      <property name="fix_background_alpha">1</property>
    </transition>
    <transition id="transition51" out="00:00:01.500">
      <property name="a_track">0</property>
      <property name="b_track">1</property>
      <property name="mlt_service">mix</property>
      <property name="start">-1</property>
      <property name="accepts_blanks">1</property>
    </transition>
  </tractor>
  <chain id="chain27" out="00:00:09.167">
    <property name="length">00:00:09.208</property>
    <property name="eof">pause</property>
    <property name="resource">D:/projects/unreal_engine_5/PlantsVsZombies/Main_menu_vids/28.mp4</property>
    <property name="mlt_service">avformat-novalidate</property>
    <property name="meta.media.nb_streams">2</property>
    <property name="meta.media.0.stream.type">video</property>
    <property name="meta.media.0.stream.frame_rate">29.9215</property>
    <property name="meta.media.0.stream.sample_aspect_ratio">0</property>
    <property name="meta.media.0.codec.width">848</property>
    <property name="meta.media.0.codec.height">478</property>
    <property name="meta.media.0.codec.rotate">0</property>
    <property name="meta.media.0.codec.pix_fmt">yuv420p</property>
    <property name="meta.media.0.codec.sample_aspect_ratio">0</property>
    <property name="meta.media.0.codec.colorspace">601</property>
    <property name="meta.media.0.codec.color_trc">6</property>
    <property name="meta.media.0.codec.name">h264</property>
    <property name="meta.media.0.codec.long_name">H.264 / AVC / MPEG-4 AVC / MPEG-4 part 10</property>
    <property name="meta.media.0.codec.bit_rate">1247176</property>
    <property name="meta.attr.0.stream.vendor_id.markup">[0][0][0][0]</property>
    <property name="meta.media.1.stream.type">audio</property>
    <property name="meta.media.1.codec.sample_fmt">fltp</property>
    <property name="meta.media.1.codec.sample_rate">48000</property>
    <property name="meta.media.1.codec.channels">2</property>
    <property name="meta.media.1.codec.name">aac</property>
    <property name="meta.media.1.codec.long_name">AAC (Advanced Audio Coding)</property>
    <property name="meta.media.1.codec.bit_rate">256091</property>
    <property name="meta.attr.1.stream.vendor_id.markup">[0][0][0][0]</property>
    <property name="meta.attr.major_brand.markup">mp42</property>
    <property name="meta.attr.minor_version.markup">0</property>
    <property name="meta.attr.compatible_brands.markup">mp42isom</property>
    <property name="seekable">1</property>
    <property name="meta.media.sample_aspect_num">1</property>
    <property name="meta.media.sample_aspect_den">1</property>
    <property name="audio_index">1</property>
    <property name="video_index">0</property>
    <property name="creation_time">2025-03-30T15:11:08</property>
    <property name="vstream">0</property>
    <property name="meta.media.frame_rate_num">2070000</property>
    <property name="meta.media.frame_rate_den">69181</property>
    <property name="meta.media.colorspace">601</property>
    <property name="meta.media.color_trc">6</property>
    <property name="meta.media.has_b_frames">0</property>
    <property name="meta.media.width">848</property>
    <property name="meta.media.height">478</property>
    <property name="meta.media.aspect_ratio">1</property>
    <property name="meta.media.color_range">mpeg</property>
    <property name="astream">0</property>
    <property name="shotcut:hash">53a0cd862bca91f1db99e41e6c14d611</property>
    <property name="xml">was here</property>
    <property name="meta.media.variable_frame_rate">1</property>
    <property name="meta.media.top_field_first">0</property>
    <property name="meta.media.progressive">1</property>
    <property name="shotcut:caption">28.mp4</property>
  </chain>
  <tractor id="tractor26" in="00:00:00.000" out="00:00:01.500">
    <property name="shotcut:transition">lumaMix</property>
    <track producer="chain26" in="00:00:11.167" out="00:00:12.667"/>
    <track producer="chain27" in="00:00:00.000" out="00:00:01.500"/>
    <transition id="transition52" out="00:00:01.500">
      <property name="a_track">0</property>
      <property name="b_track">1</property>
      <property name="factory">loader</property>
      <property name="mlt_service">luma</property>
      <property name="alpha_over">1</property>
      <property name="fix_background_alpha">1</property>
    </transition>
    <transition id="transition53" out="00:00:01.500">
      <property name="a_track">0</property>
      <property name="b_track">1</property>
      <property name="mlt_service">mix</property>
      <property name="start">-1</property>
      <property name="accepts_blanks">1</property>
    </transition>
  </tractor>
  <chain id="chain28" out="00:00:29.708">
    <property name="length">00:00:29.750</property>
    <property name="eof">pause</property>
    <property name="resource">D:/projects/unreal_engine_5/PlantsVsZombies/Main_menu_vids/29.mp4</property>
    <property name="mlt_service">avformat-novalidate</property>
    <property name="meta.media.nb_streams">2</property>
    <property name="meta.media.0.stream.type">video</property>
    <property name="meta.media.0.stream.frame_rate">29.9916</property>
    <property name="meta.media.0.stream.sample_aspect_ratio">0</property>
    <property name="meta.media.0.codec.width">848</property>
    <property name="meta.media.0.codec.height">478</property>
    <property name="meta.media.0.codec.rotate">0</property>
    <property name="meta.media.0.codec.pix_fmt">yuv420p</property>
    <property name="meta.media.0.codec.sample_aspect_ratio">0</property>
    <property name="meta.media.0.codec.colorspace">601</property>
    <property name="meta.media.0.codec.color_trc">6</property>
    <property name="meta.media.0.codec.name">h264</property>
    <property name="meta.media.0.codec.long_name">H.264 / AVC / MPEG-4 AVC / MPEG-4 part 10</property>
    <property name="meta.media.0.codec.bit_rate">986702</property>
    <property name="meta.attr.0.stream.vendor_id.markup">[0][0][0][0]</property>
    <property name="meta.media.1.stream.type">audio</property>
    <property name="meta.media.1.codec.sample_fmt">fltp</property>
    <property name="meta.media.1.codec.sample_rate">48000</property>
    <property name="meta.media.1.codec.channels">2</property>
    <property name="meta.media.1.codec.name">aac</property>
    <property name="meta.media.1.codec.long_name">AAC (Advanced Audio Coding)</property>
    <property name="meta.media.1.codec.bit_rate">256038</property>
    <property name="meta.attr.1.stream.vendor_id.markup">[0][0][0][0]</property>
    <property name="meta.attr.major_brand.markup">mp42</property>
    <property name="meta.attr.minor_version.markup">0</property>
    <property name="meta.attr.compatible_brands.markup">mp42isom</property>
    <property name="seekable">1</property>
    <property name="meta.media.sample_aspect_num">1</property>
    <property name="meta.media.sample_aspect_den">1</property>
    <property name="audio_index">1</property>
    <property name="video_index">0</property>
    <property name="creation_time">2025-03-30T15:11:08</property>
    <property name="vstream">0</property>
    <property name="meta.media.frame_rate_num">106680</property>
    <property name="meta.media.frame_rate_den">3557</property>
    <property name="meta.media.colorspace">601</property>
    <property name="meta.media.color_trc">6</property>
    <property name="meta.media.has_b_frames">0</property>
    <property name="meta.media.width">848</property>
    <property name="meta.media.height">478</property>
    <property name="meta.media.aspect_ratio">1</property>
    <property name="meta.media.color_range">mpeg</property>
    <property name="astream">0</property>
    <property name="shotcut:hash">b1484555755de6347d89decd03932990</property>
    <property name="xml">was here</property>
    <property name="meta.media.top_field_first">0</property>
    <property name="meta.media.progressive">1</property>
    <property name="shotcut:caption">29.mp4</property>
  </chain>
  <tractor id="tractor27" in="00:00:00.000" out="00:00:01.292">
    <property name="shotcut:transition">lumaMix</property>
    <track producer="chain27" in="00:00:07.875" out="00:00:09.167"/>
    <track producer="chain28" in="00:00:00.000" out="00:00:01.292"/>
    <transition id="transition54" out="00:00:01.292">
      <property name="a_track">0</property>
      <property name="b_track">1</property>
      <property name="factory">loader</property>
      <property name="mlt_service">luma</property>
      <property name="alpha_over">1</property>
      <property name="fix_background_alpha">1</property>
    </transition>
    <transition id="transition55" out="00:00:01.292">
      <property name="a_track">0</property>
      <property name="b_track">1</property>
      <property name="mlt_service">mix</property>
      <property name="start">-1</property>
      <property name="accepts_blanks">1</property>
    </transition>
  </tractor>
  <chain id="chain29" out="00:00:17.125">
    <property name="length">00:00:17.167</property>
    <property name="eof">pause</property>
    <property name="resource">D:/projects/unreal_engine_5/PlantsVsZombies/Main_menu_vids/30.mp4</property>
    <property name="mlt_service">avformat-novalidate</property>
    <property name="meta.media.nb_streams">2</property>
    <property name="meta.media.0.stream.type">video</property>
    <property name="meta.media.0.stream.frame_rate">30.0059</property>
    <property name="meta.media.0.stream.sample_aspect_ratio">0</property>
    <property name="meta.media.0.codec.width">848</property>
    <property name="meta.media.0.codec.height">480</property>
    <property name="meta.media.0.codec.rotate">0</property>
    <property name="meta.media.0.codec.pix_fmt">yuv420p</property>
    <property name="meta.media.0.codec.sample_aspect_ratio">0</property>
    <property name="meta.media.0.codec.colorspace">601</property>
    <property name="meta.media.0.codec.color_trc">6</property>
    <property name="meta.media.0.codec.name">h264</property>
    <property name="meta.media.0.codec.long_name">H.264 / AVC / MPEG-4 AVC / MPEG-4 part 10</property>
    <property name="meta.media.0.codec.bit_rate">1129410</property>
    <property name="meta.attr.0.stream.vendor_id.markup">[0][0][0][0]</property>
    <property name="meta.media.1.stream.type">audio</property>
    <property name="meta.media.1.codec.sample_fmt">fltp</property>
    <property name="meta.media.1.codec.sample_rate">44100</property>
    <property name="meta.media.1.codec.channels">2</property>
    <property name="meta.media.1.codec.name">aac</property>
    <property name="meta.media.1.codec.long_name">AAC (Advanced Audio Coding)</property>
    <property name="meta.media.1.codec.bit_rate">62915</property>
    <property name="meta.attr.1.stream.vendor_id.markup">[0][0][0][0]</property>
    <property name="meta.attr.major_brand.markup">mp42</property>
    <property name="meta.attr.minor_version.markup">0</property>
    <property name="meta.attr.compatible_brands.markup">mp42isom</property>
    <property name="seekable">1</property>
    <property name="meta.media.sample_aspect_num">1</property>
    <property name="meta.media.sample_aspect_den">1</property>
    <property name="audio_index">1</property>
    <property name="video_index">0</property>
    <property name="creation_time">2025-03-30T15:11:10</property>
    <property name="vstream">0</property>
    <property name="meta.media.frame_rate_num">15420000</property>
    <property name="meta.media.frame_rate_den">513899</property>
    <property name="meta.media.colorspace">601</property>
    <property name="meta.media.color_trc">6</property>
    <property name="meta.media.has_b_frames">0</property>
    <property name="meta.media.width">848</property>
    <property name="meta.media.height">480</property>
    <property name="meta.media.aspect_ratio">1</property>
    <property name="meta.media.color_range">mpeg</property>
    <property name="astream">0</property>
    <property name="shotcut:hash">26ab89cde4d48b2bd95f7a62c958d49f</property>
    <property name="xml">was here</property>
    <property name="meta.media.variable_frame_rate">1</property>
    <property name="meta.media.top_field_first">0</property>
    <property name="meta.media.progressive">1</property>
    <property name="shotcut:caption">30.mp4</property>
  </chain>
  <tractor id="tractor28" in="00:00:00.000" out="00:00:01.500">
    <property name="shotcut:transition">lumaMix</property>
    <track producer="chain28" in="00:00:28.208" out="00:00:29.708"/>
    <track producer="chain29" in="00:00:00.000" out="00:00:01.500"/>
    <transition id="transition56" out="00:00:01.500">
      <property name="a_track">0</property>
      <property name="b_track">1</property>
      <property name="factory">loader</property>
      <property name="mlt_service">luma</property>
      <property name="alpha_over">1</property>
      <property name="fix_background_alpha">1</property>
    </transition>
    <transition id="transition57" out="00:00:01.500">
      <property name="a_track">0</property>
      <property name="b_track">1</property>
      <property name="mlt_service">mix</property>
      <property name="start">-1</property>
      <property name="accepts_blanks">1</property>
    </transition>
  </tractor>
  <chain id="chain30" out="00:00:06.583">
    <property name="length">00:00:06.625</property>
    <property name="eof">pause</property>
    <property name="resource">D:/projects/unreal_engine_5/PlantsVsZombies/Main_menu_vids/32.mp4</property>
    <property name="mlt_service">avformat-novalidate</property>
    <property name="meta.media.nb_streams">2</property>
    <property name="meta.media.0.stream.type">video</property>
    <property name="meta.media.0.stream.frame_rate">25.8832</property>
    <property name="meta.media.0.stream.sample_aspect_ratio">0</property>
    <property name="meta.media.0.codec.width">848</property>
    <property name="meta.media.0.codec.height">474</property>
    <property name="meta.media.0.codec.rotate">0</property>
    <property name="meta.media.0.codec.pix_fmt">yuv420p</property>
    <property name="meta.media.0.codec.sample_aspect_ratio">0</property>
    <property name="meta.media.0.codec.colorspace">601</property>
    <property name="meta.media.0.codec.color_trc">6</property>
    <property name="meta.media.0.codec.name">h264</property>
    <property name="meta.media.0.codec.long_name">H.264 / AVC / MPEG-4 AVC / MPEG-4 part 10</property>
    <property name="meta.media.0.codec.bit_rate">1269898</property>
    <property name="meta.attr.0.stream.vendor_id.markup">[0][0][0][0]</property>
    <property name="meta.media.1.stream.type">audio</property>
    <property name="meta.media.1.codec.sample_fmt">fltp</property>
    <property name="meta.media.1.codec.sample_rate">48000</property>
    <property name="meta.media.1.codec.channels">1</property>
    <property name="meta.media.1.codec.name">aac</property>
    <property name="meta.media.1.codec.long_name">AAC (Advanced Audio Coding)</property>
    <property name="meta.media.1.codec.bit_rate">96114</property>
    <property name="meta.attr.1.stream.vendor_id.markup">[0][0][0][0]</property>
    <property name="meta.attr.major_brand.markup">mp42</property>
    <property name="meta.attr.minor_version.markup">0</property>
    <property name="meta.attr.compatible_brands.markup">mp42isom</property>
    <property name="seekable">1</property>
    <property name="meta.media.sample_aspect_num">1</property>
    <property name="meta.media.sample_aspect_den">1</property>
    <property name="audio_index">1</property>
    <property name="video_index">0</property>
    <property name="creation_time">2025-03-30T15:11:10</property>
    <property name="vstream">0</property>
    <property name="meta.media.frame_rate_num">126750</property>
    <property name="meta.media.frame_rate_den">4897</property>
    <property name="meta.media.colorspace">601</property>
    <property name="meta.media.color_trc">6</property>
    <property name="meta.media.has_b_frames">0</property>
    <property name="meta.media.width">848</property>
    <property name="meta.media.height">474</property>
    <property name="meta.media.aspect_ratio">1</property>
    <property name="meta.media.color_range">mpeg</property>
    <property name="astream">0</property>
    <property name="shotcut:hash">e8bce5df9a205e4d0607a69a40d5a470</property>
    <property name="xml">was here</property>
    <property name="meta.media.variable_frame_rate">1</property>
    <property name="meta.media.top_field_first">0</property>
    <property name="meta.media.progressive">1</property>
    <property name="shotcut:caption">32.mp4</property>
  </chain>
  <tractor id="tractor29" in="00:00:00.000" out="00:00:01.167">
    <property name="shotcut:transition">lumaMix</property>
    <track producer="chain29" in="00:00:15.958" out="00:00:17.125"/>
    <track producer="chain30" in="00:00:00.000" out="00:00:01.167"/>
    <transition id="transition58" out="00:00:01.167">
      <property name="a_track">0</property>
      <property name="b_track">1</property>
      <property name="factory">loader</property>
      <property name="mlt_service">luma</property>
      <property name="alpha_over">1</property>
      <property name="fix_background_alpha">1</property>
    </transition>
    <transition id="transition59" out="00:00:01.167">
      <property name="a_track">0</property>
      <property name="b_track">1</property>
      <property name="mlt_service">mix</property>
      <property name="start">-1</property>
      <property name="accepts_blanks">1</property>
    </transition>
  </tractor>
  <chain id="chain31" out="00:00:35.458">
    <property name="length">00:00:35.500</property>
    <property name="eof">pause</property>
    <property name="resource">D:/projects/unreal_engine_5/PlantsVsZombies/Main_menu_vids/33.mp4</property>
    <property name="mlt_service">avformat-novalidate</property>
    <property name="meta.media.nb_streams">2</property>
    <property name="meta.media.0.stream.type">video</property>
    <property name="meta.media.0.stream.frame_rate">25</property>
    <property name="meta.media.0.stream.sample_aspect_ratio">1</property>
    <property name="meta.media.0.codec.width">1920</property>
    <property name="meta.media.0.codec.height">1080</property>
    <property name="meta.media.0.codec.rotate">0</property>
    <property name="meta.media.0.codec.pix_fmt">yuv420p</property>
    <property name="meta.media.0.codec.sample_aspect_ratio">1</property>
    <property name="meta.media.0.codec.colorspace">709</property>
    <property name="meta.media.0.codec.color_trc">1</property>
    <property name="meta.media.0.codec.name">h264</property>
    <property name="meta.media.0.codec.long_name">H.264 / AVC / MPEG-4 AVC / MPEG-4 part 10</property>
    <property name="meta.media.0.codec.bit_rate">4690076</property>
    <property name="meta.attr.0.stream.handler_name.markup">VideoHandler</property>
    <property name="meta.attr.0.stream.vendor_id.markup">[0][0][0][0]</property>
    <property name="meta.media.1.stream.type">audio</property>
    <property name="meta.media.1.codec.sample_fmt">fltp</property>
    <property name="meta.media.1.codec.sample_rate">48000</property>
    <property name="meta.media.1.codec.channels">2</property>
    <property name="meta.media.1.codec.name">aac</property>
    <property name="meta.media.1.codec.long_name">AAC (Advanced Audio Coding)</property>
    <property name="meta.media.1.codec.bit_rate">341406</property>
    <property name="meta.attr.1.stream.handler_name.markup">SoundHandler</property>
    <property name="meta.attr.1.stream.vendor_id.markup">[0][0][0][0]</property>
    <property name="meta.attr.major_brand.markup">isom</property>
    <property name="meta.attr.minor_version.markup">512</property>
    <property name="meta.attr.compatible_brands.markup">isomiso2avc1mp41</property>
    <property name="meta.attr.encoder.markup">Lavf60.16.100</property>
    <property name="seekable">1</property>
    <property name="meta.media.sample_aspect_num">1</property>
    <property name="meta.media.sample_aspect_den">1</property>
    <property name="audio_index">1</property>
    <property name="video_index">0</property>
    <property name="creation_time">2025-03-30T15:38:37</property>
    <property name="vstream">0</property>
    <property name="meta.media.frame_rate_num">25</property>
    <property name="meta.media.frame_rate_den">1</property>
    <property name="meta.media.colorspace">709</property>
    <property name="meta.media.color_trc">1</property>
    <property name="meta.media.has_b_frames">2</property>
    <property name="meta.media.width">1920</property>
    <property name="meta.media.height">1080</property>
    <property name="meta.media.aspect_ratio">1</property>
    <property name="meta.media.color_range">mpeg</property>
    <property name="astream">0</property>
    <property name="shotcut:hash">9c79f4e3035bf26446db805542405267</property>
    <property name="xml">was here</property>
    <property name="meta.media.top_field_first">0</property>
    <property name="meta.media.progressive">1</property>
    <property name="shotcut:caption">33.mp4</property>
  </chain>
  <tractor id="tractor30" in="00:00:00.000" out="00:00:01.208">
    <property name="shotcut:transition">lumaMix</property>
    <track producer="chain30" in="00:00:05.375" out="00:00:06.583"/>
    <track producer="chain31" in="00:00:00.000" out="00:00:01.208"/>
    <transition id="transition60" out="00:00:01.208">
      <property name="a_track">0</property>
      <property name="b_track">1</property>
      <property name="factory">loader</property>
      <property name="mlt_service">luma</property>
      <property name="alpha_over">1</property>
      <property name="fix_background_alpha">1</property>
    </transition>
    <transition id="transition61" out="00:00:01.208">
      <property name="a_track">0</property>
      <property name="b_track">1</property>
      <property name="mlt_service">mix</property>
      <property name="start">-1</property>
      <property name="accepts_blanks">1</property>
    </transition>
  </tractor>
  <chain id="chain32" out="00:00:45.542">
    <property name="length">00:00:45.583</property>
    <property name="eof">pause</property>
    <property name="resource">D:/projects/unreal_engine_5/PlantsVsZombies/Main_menu_vids/34.mp4</property>
    <property name="mlt_service">avformat-novalidate</property>
    <property name="meta.media.nb_streams">2</property>
    <property name="meta.media.0.stream.type">video</property>
    <property name="meta.media.0.stream.frame_rate">59.4765</property>
    <property name="meta.media.0.stream.sample_aspect_ratio">0</property>
    <property name="meta.media.0.codec.width">848</property>
    <property name="meta.media.0.codec.height">478</property>
    <property name="meta.media.0.codec.rotate">0</property>
    <property name="meta.media.0.codec.pix_fmt">yuv420p</property>
    <property name="meta.media.0.codec.sample_aspect_ratio">0</property>
    <property name="meta.media.0.codec.colorspace">601</property>
    <property name="meta.media.0.codec.color_trc">6</property>
    <property name="meta.media.0.codec.name">h264</property>
    <property name="meta.media.0.codec.long_name">H.264 / AVC / MPEG-4 AVC / MPEG-4 part 10</property>
    <property name="meta.media.0.codec.bit_rate">1220264</property>
    <property name="meta.attr.0.stream.vendor_id.markup">[0][0][0][0]</property>
    <property name="meta.media.1.stream.type">audio</property>
    <property name="meta.media.1.codec.sample_fmt">fltp</property>
    <property name="meta.media.1.codec.sample_rate">48000</property>
    <property name="meta.media.1.codec.channels">2</property>
    <property name="meta.media.1.codec.name">aac</property>
    <property name="meta.media.1.codec.long_name">AAC (Advanced Audio Coding)</property>
    <property name="meta.media.1.codec.bit_rate">191999</property>
    <property name="meta.attr.1.stream.vendor_id.markup">[0][0][0][0]</property>
    <property name="meta.attr.major_brand.markup">mp42</property>
    <property name="meta.attr.minor_version.markup">0</property>
    <property name="meta.attr.compatible_brands.markup">mp42isom</property>
    <property name="seekable">1</property>
    <property name="meta.media.sample_aspect_num">1</property>
    <property name="meta.media.sample_aspect_den">1</property>
    <property name="audio_index">1</property>
    <property name="video_index">0</property>
    <property name="creation_time">2025-03-30T15:11:09</property>
    <property name="vstream">0</property>
    <property name="meta.media.frame_rate_num">635625</property>
    <property name="meta.media.frame_rate_den">10687</property>
    <property name="meta.media.colorspace">601</property>
    <property name="meta.media.color_trc">6</property>
    <property name="meta.media.has_b_frames">0</property>
    <property name="meta.media.width">848</property>
    <property name="meta.media.height">478</property>
    <property name="meta.media.aspect_ratio">1</property>
    <property name="meta.media.color_range">mpeg</property>
    <property name="astream">0</property>
    <property name="shotcut:hash">06263d39e59f7d50b10d4b60726f856f</property>
    <property name="xml">was here</property>
    <property name="meta.media.variable_frame_rate">1</property>
    <property name="meta.media.top_field_first">0</property>
    <property name="meta.media.progressive">1</property>
    <property name="shotcut:caption">34.mp4</property>
  </chain>
  <tractor id="tractor31" in="00:00:00.000" out="00:00:01.708">
    <property name="shotcut:transition">lumaMix</property>
    <track producer="chain31" in="00:00:33.750" out="00:00:35.458"/>
    <track producer="chain32" in="00:00:00.000" out="00:00:01.708"/>
    <transition id="transition62" out="00:00:01.708">
      <property name="a_track">0</property>
      <property name="b_track">1</property>
      <property name="factory">loader</property>
      <property name="mlt_service">luma</property>
      <property name="alpha_over">1</property>
      <property name="fix_background_alpha">1</property>
    </transition>
    <transition id="transition63" out="00:00:01.708">
      <property name="a_track">0</property>
      <property name="b_track">1</property>
      <property name="mlt_service">mix</property>
      <property name="start">-1</property>
      <property name="accepts_blanks">1</property>
    </transition>
  </tractor>
  <chain id="chain33" out="00:01:01.542">
    <property name="length">00:01:01.583</property>
    <property name="eof">pause</property>
    <property name="resource">D:/projects/unreal_engine_5/PlantsVsZombies/Main_menu_vids/35.mp4</property>
    <property name="mlt_service">avformat-novalidate</property>
    <property name="meta.media.nb_streams">2</property>
    <property name="meta.media.0.stream.type">video</property>
    <property name="meta.media.0.stream.frame_rate">25.8457</property>
    <property name="meta.media.0.stream.sample_aspect_ratio">0</property>
    <property name="meta.media.0.codec.width">848</property>
    <property name="meta.media.0.codec.height">478</property>
    <property name="meta.media.0.codec.rotate">0</property>
    <property name="meta.media.0.codec.pix_fmt">yuv420p</property>
    <property name="meta.media.0.codec.sample_aspect_ratio">0</property>
    <property name="meta.media.0.codec.colorspace">601</property>
    <property name="meta.media.0.codec.color_trc">6</property>
    <property name="meta.media.0.codec.name">h264</property>
    <property name="meta.media.0.codec.long_name">H.264 / AVC / MPEG-4 AVC / MPEG-4 part 10</property>
    <property name="meta.media.0.codec.bit_rate">983328</property>
    <property name="meta.attr.0.stream.vendor_id.markup">[0][0][0][0]</property>
    <property name="meta.media.1.stream.type">audio</property>
    <property name="meta.media.1.codec.sample_fmt">fltp</property>
    <property name="meta.media.1.codec.sample_rate">48000</property>
    <property name="meta.media.1.codec.channels">2</property>
    <property name="meta.media.1.codec.name">aac</property>
    <property name="meta.media.1.codec.long_name">AAC (Advanced Audio Coding)</property>
    <property name="meta.media.1.codec.bit_rate">256017</property>
    <property name="meta.attr.1.stream.vendor_id.markup">[0][0][0][0]</property>
    <property name="meta.attr.major_brand.markup">mp42</property>
    <property name="meta.attr.minor_version.markup">0</property>
    <property name="meta.attr.compatible_brands.markup">mp42isom</property>
    <property name="seekable">1</property>
    <property name="meta.media.sample_aspect_num">1</property>
    <property name="meta.media.sample_aspect_den">1</property>
    <property name="audio_index">1</property>
    <property name="video_index">0</property>
    <property name="creation_time">2025-03-30T15:11:09</property>
    <property name="vstream">0</property>
    <property name="meta.media.frame_rate_num">4776000</property>
    <property name="meta.media.frame_rate_den">184789</property>
    <property name="meta.media.colorspace">601</property>
    <property name="meta.media.color_trc">6</property>
    <property name="meta.media.has_b_frames">0</property>
    <property name="meta.media.width">848</property>
    <property name="meta.media.height">478</property>
    <property name="meta.media.aspect_ratio">1</property>
    <property name="meta.media.color_range">mpeg</property>
    <property name="astream">0</property>
    <property name="shotcut:hash">e818a20e17faf424937fb5b18f92d602</property>
    <property name="xml">was here</property>
    <property name="meta.media.variable_frame_rate">1</property>
    <property name="meta.media.top_field_first">0</property>
    <property name="meta.media.progressive">1</property>
    <property name="shotcut:caption">35.mp4</property>
  </chain>
  <tractor id="tractor32" in="00:00:00.000" out="00:00:01.958">
    <property name="shotcut:transition">lumaMix</property>
    <track producer="chain32" in="00:00:43.583" out="00:00:45.542"/>
    <track producer="chain33" in="00:00:00.000" out="00:00:01.958"/>
    <transition id="transition64" out="00:00:01.958">
      <property name="a_track">0</property>
      <property name="b_track">1</property>
      <property name="factory">loader</property>
      <property name="mlt_service">luma</property>
      <property name="alpha_over">1</property>
      <property name="fix_background_alpha">1</property>
    </transition>
    <transition id="transition65" out="00:00:01.958">
      <property name="a_track">0</property>
      <property name="b_track">1</property>
      <property name="mlt_service">mix</property>
      <property name="start">-1</property>
      <property name="accepts_blanks">1</property>
    </transition>
  </tractor>
  <chain id="chain34" out="00:00:18.542">
    <property name="length">00:00:18.583</property>
    <property name="eof">pause</property>
    <property name="resource">D:/projects/unreal_engine_5/PlantsVsZombies/Main_menu_vids/36.mp4</property>
    <property name="mlt_service">avformat-novalidate</property>
    <property name="meta.media.nb_streams">2</property>
    <property name="meta.media.0.stream.type">video</property>
    <property name="meta.media.0.stream.frame_rate">29.6546</property>
    <property name="meta.media.0.stream.sample_aspect_ratio">0</property>
    <property name="meta.media.0.codec.width">848</property>
    <property name="meta.media.0.codec.height">392</property>
    <property name="meta.media.0.codec.rotate">0</property>
    <property name="meta.media.0.codec.pix_fmt">yuv420p</property>
    <property name="meta.media.0.codec.sample_aspect_ratio">0</property>
    <property name="meta.media.0.codec.colorspace">601</property>
    <property name="meta.media.0.codec.color_trc">6</property>
    <property name="meta.media.0.codec.name">h264</property>
    <property name="meta.media.0.codec.long_name">H.264 / AVC / MPEG-4 AVC / MPEG-4 part 10</property>
    <property name="meta.media.0.codec.bit_rate">1166873</property>
    <property name="meta.attr.0.stream.vendor_id.markup">[0][0][0][0]</property>
    <property name="meta.media.1.stream.type">audio</property>
    <property name="meta.media.1.codec.sample_fmt">fltp</property>
    <property name="meta.media.1.codec.sample_rate">48000</property>
    <property name="meta.media.1.codec.channels">2</property>
    <property name="meta.media.1.codec.name">aac</property>
    <property name="meta.media.1.codec.long_name">AAC (Advanced Audio Coding)</property>
    <property name="meta.media.1.codec.bit_rate">256030</property>
    <property name="meta.attr.1.stream.vendor_id.markup">[0][0][0][0]</property>
    <property name="meta.attr.major_brand.markup">mp42</property>
    <property name="meta.attr.minor_version.markup">0</property>
    <property name="meta.attr.compatible_brands.markup">mp42isom</property>
    <property name="seekable">1</property>
    <property name="meta.media.sample_aspect_num">1</property>
    <property name="meta.media.sample_aspect_den">1</property>
    <property name="audio_index">1</property>
    <property name="video_index">0</property>
    <property name="creation_time">2025-03-30T15:11:09</property>
    <property name="vstream">0</property>
    <property name="meta.media.frame_rate_num">16530000</property>
    <property name="meta.media.frame_rate_den">557417</property>
    <property name="meta.media.colorspace">601</property>
    <property name="meta.media.color_trc">6</property>
    <property name="meta.media.has_b_frames">0</property>
    <property name="meta.media.width">848</property>
    <property name="meta.media.height">392</property>
    <property name="meta.media.aspect_ratio">1</property>
    <property name="meta.media.color_range">mpeg</property>
    <property name="astream">0</property>
    <property name="shotcut:hash">7fb6c8c5242ac269f62e76128eea6d8a</property>
    <property name="xml">was here</property>
    <property name="meta.media.variable_frame_rate">1</property>
    <property name="meta.media.top_field_first">0</property>
    <property name="meta.media.progressive">1</property>
    <property name="shotcut:caption">36.mp4</property>
    <property name="meta.shotcut.vui">1</property>
    <filter id="filter5" out="00:00:20.167">
      <property name="background">color:#00000000</property>
      <property name="mlt_service">affine</property>
      <property name="shotcut:filter">affineSizePosition</property>
      <property name="transition.fill">1</property>
      <property name="transition.distort">0</property>
      <property name="transition.rect">-232.32 -11.514 2384.64 1102 1</property>
      <property name="transition.valign">middle</property>
      <property name="transition.halign">center</property>
      <property name="shotcut:animIn">00:00:00.000</property>
      <property name="shotcut:animOut">00:00:00.000</property>
      <property name="transition.threads">0</property>
    </filter>
  </chain>
  <tractor id="tractor33" in="00:00:00.000" out="00:00:01.458">
    <property name="shotcut:transition">lumaMix</property>
    <track producer="chain33" in="00:00:24.875" out="00:00:26.333"/>
    <track producer="chain34" in="00:00:00.000" out="00:00:01.458"/>
    <transition id="transition66" out="00:00:01.458">
      <property name="a_track">0</property>
      <property name="b_track">1</property>
      <property name="factory">loader</property>
      <property name="mlt_service">luma</property>
      <property name="alpha_over">1</property>
      <property name="fix_background_alpha">1</property>
    </transition>
    <transition id="transition67" out="00:00:01.458">
      <property name="a_track">0</property>
      <property name="b_track">1</property>
      <property name="mlt_service">mix</property>
      <property name="start">-1</property>
      <property name="accepts_blanks">1</property>
    </transition>
  </tractor>
  <chain id="chain35" out="00:00:58.042">
    <property name="length">00:00:58.083</property>
    <property name="eof">pause</property>
    <property name="resource">D:/projects/unreal_engine_5/PlantsVsZombies/Main_menu_vids/38.mp4</property>
    <property name="mlt_service">avformat-novalidate</property>
    <property name="meta.media.nb_streams">2</property>
    <property name="meta.media.0.stream.type">video</property>
    <property name="meta.media.0.stream.frame_rate">24.0267</property>
    <property name="meta.media.0.stream.sample_aspect_ratio">0</property>
    <property name="meta.media.0.codec.width">848</property>
    <property name="meta.media.0.codec.height">478</property>
    <property name="meta.media.0.codec.rotate">0</property>
    <property name="meta.media.0.codec.pix_fmt">yuv420p</property>
    <property name="meta.media.0.codec.sample_aspect_ratio">0</property>
    <property name="meta.media.0.codec.colorspace">601</property>
    <property name="meta.media.0.codec.color_trc">6</property>
    <property name="meta.media.0.codec.name">h264</property>
    <property name="meta.media.0.codec.long_name">H.264 / AVC / MPEG-4 AVC / MPEG-4 part 10</property>
    <property name="meta.media.0.codec.bit_rate">1003461</property>
    <property name="meta.attr.0.stream.vendor_id.markup">[0][0][0][0]</property>
    <property name="meta.media.1.stream.type">audio</property>
    <property name="meta.media.1.codec.sample_fmt">fltp</property>
    <property name="meta.media.1.codec.sample_rate">48000</property>
    <property name="meta.media.1.codec.channels">2</property>
    <property name="meta.media.1.codec.name">aac</property>
    <property name="meta.media.1.codec.long_name">AAC (Advanced Audio Coding)</property>
    <property name="meta.media.1.codec.bit_rate">256024</property>
    <property name="meta.attr.1.stream.vendor_id.markup">[0][0][0][0]</property>
    <property name="meta.attr.major_brand.markup">mp42</property>
    <property name="meta.attr.minor_version.markup">0</property>
    <property name="meta.attr.compatible_brands.markup">mp42isom</property>
    <property name="seekable">1</property>
    <property name="meta.media.sample_aspect_num">1</property>
    <property name="meta.media.sample_aspect_den">1</property>
    <property name="audio_index">1</property>
    <property name="video_index">0</property>
    <property name="creation_time">2025-03-30T15:11:09</property>
    <property name="vstream">0</property>
    <property name="meta.media.frame_rate_num">930000</property>
    <property name="meta.media.frame_rate_den">38707</property>
    <property name="meta.media.colorspace">601</property>
    <property name="meta.media.color_trc">6</property>
    <property name="meta.media.has_b_frames">0</property>
    <property name="meta.media.width">848</property>
    <property name="meta.media.height">478</property>
    <property name="meta.media.aspect_ratio">1</property>
    <property name="meta.media.color_range">mpeg</property>
    <property name="astream">0</property>
    <property name="shotcut:hash">27efd3be4276aa3b24cc991121c352bf</property>
    <property name="meta.media.variable_frame_rate">1</property>
    <property name="meta.media.top_field_first">0</property>
    <property name="meta.media.progressive">1</property>
    <property name="xml">was here</property>
    <property name="shotcut:caption">38.mp4</property>
  </chain>
  <tractor id="tractor34" in="00:00:00.000" out="00:00:01.625">
    <property name="shotcut:transition">lumaMix</property>
    <track producer="chain34" in="00:00:16.917" out="00:00:18.542"/>
    <track producer="chain35" in="00:00:00.000" out="00:00:01.625"/>
    <transition id="transition68" out="00:00:01.625">
      <property name="a_track">0</property>
      <property name="b_track">1</property>
      <property name="factory">loader</property>
      <property name="mlt_service">luma</property>
      <property name="alpha_over">1</property>
      <property name="fix_background_alpha">1</property>
    </transition>
    <transition id="transition69" out="00:00:01.625">
      <property name="a_track">0</property>
      <property name="b_track">1</property>
      <property name="mlt_service">mix</property>
      <property name="start">-1</property>
      <property name="accepts_blanks">1</property>
    </transition>
  </tractor>
  <chain id="chain36" out="00:00:19.583">
    <property name="length">00:00:19.625</property>
    <property name="eof">pause</property>
    <property name="resource">D:/projects/unreal_engine_5/PlantsVsZombies/Main_menu_vids/39.mp4</property>
    <property name="mlt_service">avformat-novalidate</property>
    <property name="meta.media.nb_streams">2</property>
    <property name="meta.media.0.stream.type">video</property>
    <property name="meta.media.0.stream.frame_rate">27.1501</property>
    <property name="meta.media.0.stream.sample_aspect_ratio">0</property>
    <property name="meta.media.0.codec.width">848</property>
    <property name="meta.media.0.codec.height">478</property>
    <property name="meta.media.0.codec.rotate">0</property>
    <property name="meta.media.0.codec.pix_fmt">yuv420p</property>
    <property name="meta.media.0.codec.sample_aspect_ratio">0</property>
    <property name="meta.media.0.codec.colorspace">601</property>
    <property name="meta.media.0.codec.color_trc">6</property>
    <property name="meta.media.0.codec.name">h264</property>
    <property name="meta.media.0.codec.long_name">H.264 / AVC / MPEG-4 AVC / MPEG-4 part 10</property>
    <property name="meta.media.0.codec.bit_rate">1207542</property>
    <property name="meta.attr.0.stream.vendor_id.markup">[0][0][0][0]</property>
    <property name="meta.media.1.stream.type">audio</property>
    <property name="meta.media.1.codec.sample_fmt">fltp</property>
    <property name="meta.media.1.codec.sample_rate">48000</property>
    <property name="meta.media.1.codec.channels">2</property>
    <property name="meta.media.1.codec.name">aac</property>
    <property name="meta.media.1.codec.long_name">AAC (Advanced Audio Coding)</property>
    <property name="meta.media.1.codec.bit_rate">256060</property>
    <property name="meta.attr.1.stream.vendor_id.markup">[0][0][0][0]</property>
    <property name="meta.attr.major_brand.markup">mp42</property>
    <property name="meta.attr.minor_version.markup">0</property>
    <property name="meta.attr.compatible_brands.markup">mp42isom</property>
    <property name="seekable">1</property>
    <property name="meta.media.sample_aspect_num">1</property>
    <property name="meta.media.sample_aspect_den">1</property>
    <property name="audio_index">1</property>
    <property name="video_index">0</property>
    <property name="creation_time">2025-03-30T15:11:09</property>
    <property name="vstream">0</property>
    <property name="meta.media.frame_rate_num">15990000</property>
    <property name="meta.media.frame_rate_den">588949</property>
    <property name="meta.media.colorspace">601</property>
    <property name="meta.media.color_trc">6</property>
    <property name="meta.media.has_b_frames">0</property>
    <property name="meta.media.width">848</property>
    <property name="meta.media.height">478</property>
    <property name="meta.media.aspect_ratio">1</property>
    <property name="meta.media.color_range">mpeg</property>
    <property name="astream">0</property>
    <property name="shotcut:hash">50a458bb8549a63cdb12c526c9f302e0</property>
    <property name="xml">was here</property>
    <property name="meta.media.variable_frame_rate">1</property>
    <property name="meta.media.top_field_first">0</property>
    <property name="meta.media.progressive">1</property>
    <property name="shotcut:caption">39.mp4</property>
  </chain>
  <tractor id="tractor35" in="00:00:00.000" out="00:00:01.792">
    <property name="shotcut:transition">lumaMix</property>
    <track producer="chain35" in="00:00:56.250" out="00:00:58.042"/>
    <track producer="chain36" in="00:00:00.000" out="00:00:01.792"/>
    <transition id="transition70" out="00:00:01.792">
      <property name="a_track">0</property>
      <property name="b_track">1</property>
      <property name="factory">loader</property>
      <property name="mlt_service">luma</property>
      <property name="alpha_over">1</property>
      <property name="fix_background_alpha">1</property>
    </transition>
    <transition id="transition71" out="00:00:01.792">
      <property name="a_track">0</property>
      <property name="b_track">1</property>
      <property name="mlt_service">mix</property>
      <property name="start">-1</property>
      <property name="accepts_blanks">1</property>
    </transition>
  </tractor>
  <chain id="chain37" out="00:01:31.333">
    <property name="length">00:01:31.375</property>
    <property name="eof">pause</property>
    <property name="resource">D:/projects/unreal_engine_5/PlantsVsZombies/Main_menu_vids/40.mp4</property>
    <property name="mlt_service">avformat-novalidate</property>
    <property name="meta.media.nb_streams">2</property>
    <property name="meta.media.0.stream.type">video</property>
    <property name="meta.media.0.stream.frame_rate">30.0301</property>
    <property name="meta.media.0.stream.sample_aspect_ratio">0</property>
    <property name="meta.media.0.codec.width">848</property>
    <property name="meta.media.0.codec.height">400</property>
    <property name="meta.media.0.codec.rotate">0</property>
    <property name="meta.media.0.codec.pix_fmt">yuv420p</property>
    <property name="meta.media.0.codec.sample_aspect_ratio">0</property>
    <property name="meta.media.0.codec.colorspace">601</property>
    <property name="meta.media.0.codec.color_trc">6</property>
    <property name="meta.media.0.codec.name">h264</property>
    <property name="meta.media.0.codec.long_name">H.264 / AVC / MPEG-4 AVC / MPEG-4 part 10</property>
    <property name="meta.media.0.codec.bit_rate">1220600</property>
    <property name="meta.attr.0.stream.vendor_id.markup">[0][0][0][0]</property>
    <property name="meta.media.1.stream.type">audio</property>
    <property name="meta.media.1.codec.sample_fmt">fltp</property>
    <property name="meta.media.1.codec.sample_rate">48000</property>
    <property name="meta.media.1.codec.channels">2</property>
    <property name="meta.media.1.codec.name">aac</property>
    <property name="meta.media.1.codec.long_name">AAC (Advanced Audio Coding)</property>
    <property name="meta.media.1.codec.bit_rate">256008</property>
    <property name="meta.attr.1.stream.vendor_id.markup">[0][0][0][0]</property>
    <property name="meta.attr.major_brand.markup">mp42</property>
    <property name="meta.attr.minor_version.markup">0</property>
    <property name="meta.attr.compatible_brands.markup">mp42isom</property>
    <property name="seekable">1</property>
    <property name="meta.media.sample_aspect_num">1</property>
    <property name="meta.media.sample_aspect_den">1</property>
    <property name="audio_index">1</property>
    <property name="video_index">0</property>
    <property name="creation_time">2025-03-30T15:11:10</property>
    <property name="vstream">0</property>
    <property name="meta.media.frame_rate_num">41160000</property>
    <property name="meta.media.frame_rate_den">1370627</property>
    <property name="meta.media.colorspace">601</property>
    <property name="meta.media.color_trc">6</property>
    <property name="meta.media.has_b_frames">0</property>
    <property name="meta.media.width">848</property>
    <property name="meta.media.height">400</property>
    <property name="meta.media.aspect_ratio">1</property>
    <property name="meta.media.color_range">mpeg</property>
    <property name="astream">0</property>
    <property name="shotcut:hash">27aa788e4266daa960b62d2e2a55e2d6</property>
    <property name="xml">was here</property>
    <property name="meta.media.variable_frame_rate">1</property>
    <property name="meta.media.top_field_first">0</property>
    <property name="meta.media.progressive">1</property>
    <property name="shotcut:caption">40.mp4</property>
    <property name="meta.shotcut.vui">1</property>
    <filter id="filter6" out="00:01:14.708">
      <property name="background">color:#00000000</property>
      <property name="mlt_service">affine</property>
      <property name="shotcut:filter">affineSizePosition</property>
      <property name="transition.fill">1</property>
      <property name="transition.distort">0</property>
      <property name="transition.rect">-232.32 -11.514 2384.64 1102 1</property>
      <property name="transition.valign">middle</property>
      <property name="transition.halign">center</property>
      <property name="shotcut:animIn">00:00:00.000</property>
      <property name="shotcut:animOut">00:00:00.000</property>
      <property name="transition.threads">0</property>
    </filter>
  </chain>
  <tractor id="tractor36" in="00:00:00.000" out="00:00:01.750">
    <property name="shotcut:transition">lumaMix</property>
    <track producer="chain36" in="00:00:17.833" out="00:00:19.583"/>
    <track producer="chain37" in="00:00:00.000" out="00:00:01.750"/>
    <transition id="transition72" out="00:00:01.750">
      <property name="a_track">0</property>
      <property name="b_track">1</property>
      <property name="factory">loader</property>
      <property name="mlt_service">luma</property>
      <property name="alpha_over">1</property>
      <property name="fix_background_alpha">1</property>
    </transition>
    <transition id="transition73" out="00:00:01.750">
      <property name="a_track">0</property>
      <property name="b_track">1</property>
      <property name="mlt_service">mix</property>
      <property name="start">-1</property>
      <property name="accepts_blanks">1</property>
    </transition>
  </tractor>
  <chain id="chain38" out="00:01:14.875">
    <property name="length">00:01:14.917</property>
    <property name="eof">pause</property>
    <property name="resource">D:/projects/unreal_engine_5/PlantsVsZombies/Main_menu_vids/41.mp4</property>
    <property name="mlt_service">avformat-novalidate</property>
    <property name="meta.media.nb_streams">2</property>
    <property name="meta.media.0.stream.type">video</property>
    <property name="meta.media.0.stream.frame_rate">29.9201</property>
    <property name="meta.media.0.stream.sample_aspect_ratio">0</property>
    <property name="meta.media.0.codec.width">848</property>
    <property name="meta.media.0.codec.height">400</property>
    <property name="meta.media.0.codec.rotate">0</property>
    <property name="meta.media.0.codec.pix_fmt">yuv420p</property>
    <property name="meta.media.0.codec.sample_aspect_ratio">0</property>
    <property name="meta.media.0.codec.colorspace">601</property>
    <property name="meta.media.0.codec.color_trc">6</property>
    <property name="meta.media.0.codec.name">h264</property>
    <property name="meta.media.0.codec.long_name">H.264 / AVC / MPEG-4 AVC / MPEG-4 part 10</property>
    <property name="meta.media.0.codec.bit_rate">1217187</property>
    <property name="meta.attr.0.stream.vendor_id.markup">[0][0][0][0]</property>
    <property name="meta.media.1.stream.type">audio</property>
    <property name="meta.media.1.codec.sample_fmt">fltp</property>
    <property name="meta.media.1.codec.sample_rate">48000</property>
    <property name="meta.media.1.codec.channels">2</property>
    <property name="meta.media.1.codec.name">aac</property>
    <property name="meta.media.1.codec.long_name">AAC (Advanced Audio Coding)</property>
    <property name="meta.media.1.codec.bit_rate">256010</property>
    <property name="meta.attr.1.stream.vendor_id.markup">[0][0][0][0]</property>
    <property name="meta.attr.major_brand.markup">mp42</property>
    <property name="meta.attr.minor_version.markup">0</property>
    <property name="meta.attr.compatible_brands.markup">mp42isom</property>
    <property name="seekable">1</property>
    <property name="meta.media.sample_aspect_num">1</property>
    <property name="meta.media.sample_aspect_den">1</property>
    <property name="audio_index">1</property>
    <property name="video_index">0</property>
    <property name="creation_time">2025-03-30T15:11:10</property>
    <property name="vstream">0</property>
    <property name="meta.media.frame_rate_num">8403750</property>
    <property name="meta.media.frame_rate_den">280873</property>
    <property name="meta.media.colorspace">601</property>
    <property name="meta.media.color_trc">6</property>
    <property name="meta.media.has_b_frames">0</property>
    <property name="meta.media.width">848</property>
    <property name="meta.media.height">400</property>
    <property name="meta.media.aspect_ratio">1</property>
    <property name="meta.media.color_range">mpeg</property>
    <property name="astream">0</property>
    <property name="shotcut:hash">058205c28ce743196d1cebb43eb009a8</property>
    <property name="xml">was here</property>
    <property name="meta.media.variable_frame_rate">1</property>
    <property name="meta.media.top_field_first">0</property>
    <property name="meta.media.progressive">1</property>
    <property name="shotcut:caption">41.mp4</property>
    <property name="meta.shotcut.vui">1</property>
    <filter id="filter7" out="00:00:21.417">
      <property name="background">color:#00000000</property>
      <property name="mlt_service">affine</property>
      <property name="shotcut:filter">affineSizePosition</property>
      <property name="transition.fill">1</property>
      <property name="transition.distort">0</property>
      <property name="transition.rect">-232.32 -11.514 2384.64 1102 1</property>
      <property name="transition.valign">middle</property>
      <property name="transition.halign">center</property>
      <property name="shotcut:animIn">00:00:00.000</property>
      <property name="shotcut:animOut">00:00:00.000</property>
      <property name="transition.threads">0</property>
    </filter>
  </chain>
  <tractor id="tractor37" in="00:00:00.000" out="00:00:02.542">
    <property name="shotcut:transition">lumaMix</property>
    <track producer="chain37" in="00:01:12.167" out="00:01:14.708"/>
    <track producer="chain38" in="00:00:00.000" out="00:00:02.542"/>
    <transition id="transition74" out="00:00:02.542">
      <property name="a_track">0</property>
      <property name="b_track">1</property>
      <property name="factory">loader</property>
      <property name="mlt_service">luma</property>
      <property name="alpha_over">1</property>
      <property name="fix_background_alpha">1</property>
    </transition>
    <transition id="transition75" out="00:00:02.542">
      <property name="a_track">0</property>
      <property name="b_track">1</property>
      <property name="mlt_service">mix</property>
      <property name="start">-1</property>
      <property name="accepts_blanks">1</property>
    </transition>
  </tractor>
  <chain id="chain39" out="00:01:14.875">
    <property name="length">00:01:14.917</property>
    <property name="eof">pause</property>
    <property name="resource">D:/projects/unreal_engine_5/PlantsVsZombies/Main_menu_vids/41.mp4</property>
    <property name="mlt_service">avformat-novalidate</property>
    <property name="meta.media.nb_streams">2</property>
    <property name="meta.media.0.stream.type">video</property>
    <property name="meta.media.0.stream.frame_rate">29.9201</property>
    <property name="meta.media.0.stream.sample_aspect_ratio">0</property>
    <property name="meta.media.0.codec.width">848</property>
    <property name="meta.media.0.codec.height">400</property>
    <property name="meta.media.0.codec.rotate">0</property>
    <property name="meta.media.0.codec.pix_fmt">yuv420p</property>
    <property name="meta.media.0.codec.sample_aspect_ratio">0</property>
    <property name="meta.media.0.codec.colorspace">601</property>
    <property name="meta.media.0.codec.color_trc">6</property>
    <property name="meta.media.0.codec.name">h264</property>
    <property name="meta.media.0.codec.long_name">H.264 / AVC / MPEG-4 AVC / MPEG-4 part 10</property>
    <property name="meta.media.0.codec.bit_rate">1217187</property>
    <property name="meta.attr.0.stream.vendor_id.markup">[0][0][0][0]</property>
    <property name="meta.media.1.stream.type">audio</property>
    <property name="meta.media.1.codec.sample_fmt">fltp</property>
    <property name="meta.media.1.codec.sample_rate">48000</property>
    <property name="meta.media.1.codec.channels">2</property>
    <property name="meta.media.1.codec.name">aac</property>
    <property name="meta.media.1.codec.long_name">AAC (Advanced Audio Coding)</property>
    <property name="meta.media.1.codec.bit_rate">256010</property>
    <property name="meta.attr.1.stream.vendor_id.markup">[0][0][0][0]</property>
    <property name="meta.attr.major_brand.markup">mp42</property>
    <property name="meta.attr.minor_version.markup">0</property>
    <property name="meta.attr.compatible_brands.markup">mp42isom</property>
    <property name="seekable">1</property>
    <property name="meta.media.sample_aspect_num">1</property>
    <property name="meta.media.sample_aspect_den">1</property>
    <property name="audio_index">1</property>
    <property name="video_index">0</property>
    <property name="creation_time">2025-03-30T15:11:10</property>
    <property name="vstream">0</property>
    <property name="meta.media.frame_rate_num">8403750</property>
    <property name="meta.media.frame_rate_den">280873</property>
    <property name="meta.media.colorspace">601</property>
    <property name="meta.media.color_trc">6</property>
    <property name="meta.media.has_b_frames">0</property>
    <property name="meta.media.width">848</property>
    <property name="meta.media.height">400</property>
    <property name="meta.media.aspect_ratio">1</property>
    <property name="meta.media.color_range">mpeg</property>
    <property name="astream">0</property>
    <property name="shotcut:hash">058205c28ce743196d1cebb43eb009a8</property>
    <property name="xml">was here</property>
    <property name="meta.media.variable_frame_rate">1</property>
    <property name="meta.media.top_field_first">0</property>
    <property name="meta.media.progressive">1</property>
    <property name="shotcut:caption">41.mp4</property>
    <property name="meta.shotcut.vui">1</property>
    <filter id="filter8" in="00:00:55.500" out="00:01:04.625">
      <property name="background">color:#00000000</property>
      <property name="mlt_service">affine</property>
      <property name="shotcut:filter">affineSizePosition</property>
      <property name="transition.fill">1</property>
      <property name="transition.distort">0</property>
      <property name="transition.rect">-232.32 -11.514 2384.64 1102 1</property>
      <property name="transition.valign">middle</property>
      <property name="transition.halign">center</property>
      <property name="shotcut:animIn">00:00:00.000</property>
      <property name="shotcut:animOut">00:00:00.000</property>
      <property name="transition.threads">0</property>
    </filter>
  </chain>
  <chain id="chain40" out="00:01:53.000">
    <property name="length">00:01:53.042</property>
    <property name="eof">pause</property>
    <property name="resource">D:/projects/unreal_engine_5/PlantsVsZombies/Main_menu_vids/42.mp4</property>
    <property name="mlt_service">avformat-novalidate</property>
    <property name="meta.media.nb_streams">2</property>
    <property name="meta.media.0.stream.type">video</property>
    <property name="meta.media.0.stream.frame_rate">29.974</property>
    <property name="meta.media.0.stream.sample_aspect_ratio">0</property>
    <property name="meta.media.0.codec.width">848</property>
    <property name="meta.media.0.codec.height">400</property>
    <property name="meta.media.0.codec.rotate">0</property>
    <property name="meta.media.0.codec.pix_fmt">yuv420p</property>
    <property name="meta.media.0.codec.sample_aspect_ratio">0</property>
    <property name="meta.media.0.codec.colorspace">601</property>
    <property name="meta.media.0.codec.color_trc">6</property>
    <property name="meta.media.0.codec.name">h264</property>
    <property name="meta.media.0.codec.long_name">H.264 / AVC / MPEG-4 AVC / MPEG-4 part 10</property>
    <property name="meta.media.0.codec.bit_rate">1222741</property>
    <property name="meta.attr.0.stream.vendor_id.markup">[0][0][0][0]</property>
    <property name="meta.media.1.stream.type">audio</property>
    <property name="meta.media.1.codec.sample_fmt">fltp</property>
    <property name="meta.media.1.codec.sample_rate">48000</property>
    <property name="meta.media.1.codec.channels">2</property>
    <property name="meta.media.1.codec.name">aac</property>
    <property name="meta.media.1.codec.long_name">AAC (Advanced Audio Coding)</property>
    <property name="meta.media.1.codec.bit_rate">256011</property>
    <property name="meta.attr.1.stream.vendor_id.markup">[0][0][0][0]</property>
    <property name="meta.attr.major_brand.markup">mp42</property>
    <property name="meta.attr.minor_version.markup">0</property>
    <property name="meta.attr.compatible_brands.markup">mp42isom</property>
    <property name="seekable">1</property>
    <property name="meta.media.sample_aspect_num">1</property>
    <property name="meta.media.sample_aspect_den">1</property>
    <property name="audio_index">1</property>
    <property name="video_index">0</property>
    <property name="creation_time">2025-03-30T15:11:10</property>
    <property name="vstream">0</property>
    <property name="meta.media.frame_rate_num">101640000</property>
    <property name="meta.media.frame_rate_den">3390941</property>
    <property name="meta.media.colorspace">601</property>
    <property name="meta.media.color_trc">6</property>
    <property name="meta.media.has_b_frames">0</property>
    <property name="meta.media.width">848</property>
    <property name="meta.media.height">400</property>
    <property name="meta.media.aspect_ratio">1</property>
    <property name="meta.media.color_range">mpeg</property>
    <property name="astream">0</property>
    <property name="shotcut:hash">fe2c951052145262e8280b4daa1cd8cb</property>
    <property name="xml">was here</property>
    <property name="meta.media.top_field_first">0</property>
    <property name="meta.media.progressive">1</property>
    <property name="shotcut:caption">42.mp4</property>
    <property name="meta.shotcut.vui">1</property>
    <filter id="filter9" out="00:01:03.500">
      <property name="background">color:#00000000</property>
      <property name="mlt_service">affine</property>
      <property name="shotcut:filter">affineSizePosition</property>
      <property name="transition.fill">1</property>
      <property name="transition.distort">0</property>
      <property name="transition.rect">-232.32 -11.514 2384.64 1102 1</property>
      <property name="transition.valign">middle</property>
      <property name="transition.halign">center</property>
      <property name="shotcut:animIn">00:00:00.000</property>
      <property name="shotcut:animOut">00:00:00.000</property>
      <property name="transition.threads">0</property>
    </filter>
  </chain>
  <tractor id="tractor38" in="00:00:00.000" out="00:00:01.583">
    <property name="shotcut:transition">lumaMix</property>
    <track producer="chain39" in="00:01:03.042" out="00:01:04.625"/>
    <track producer="chain40" in="00:00:00.000" out="00:00:01.583"/>
    <transition id="transition76" out="00:00:01.583">
      <property name="a_track">0</property>
      <property name="b_track">1</property>
      <property name="factory">loader</property>
      <property name="mlt_service">luma</property>
      <property name="alpha_over">1</property>
      <property name="fix_background_alpha">1</property>
    </transition>
    <transition id="transition77" out="00:00:01.583">
      <property name="a_track">0</property>
      <property name="b_track">1</property>
      <property name="mlt_service">mix</property>
      <property name="start">-1</property>
      <property name="accepts_blanks">1</property>
    </transition>
  </tractor>
  <chain id="chain41" out="00:00:32.792">
    <property name="length">00:00:32.833</property>
    <property name="eof">pause</property>
    <property name="resource">D:/projects/unreal_engine_5/PlantsVsZombies/Main_menu_vids/43.mp4</property>
    <property name="mlt_service">avformat-novalidate</property>
    <property name="meta.media.nb_streams">2</property>
    <property name="meta.media.0.stream.type">video</property>
    <property name="meta.media.0.stream.frame_rate">59.5875</property>
    <property name="meta.media.0.stream.sample_aspect_ratio">0</property>
    <property name="meta.media.0.codec.width">848</property>
    <property name="meta.media.0.codec.height">478</property>
    <property name="meta.media.0.codec.rotate">0</property>
    <property name="meta.media.0.codec.pix_fmt">yuv420p</property>
    <property name="meta.media.0.codec.sample_aspect_ratio">0</property>
    <property name="meta.media.0.codec.colorspace">709</property>
    <property name="meta.media.0.codec.color_trc">1</property>
    <property name="meta.media.0.codec.name">h264</property>
    <property name="meta.media.0.codec.long_name">H.264 / AVC / MPEG-4 AVC / MPEG-4 part 10</property>
    <property name="meta.media.0.codec.bit_rate">1560703</property>
    <property name="meta.attr.0.stream.vendor_id.markup">[0][0][0][0]</property>
    <property name="meta.media.1.stream.type">audio</property>
    <property name="meta.media.1.codec.sample_fmt">fltp</property>
    <property name="meta.media.1.codec.sample_rate">48000</property>
    <property name="meta.media.1.codec.channels">2</property>
    <property name="meta.media.1.codec.name">aac</property>
    <property name="meta.media.1.codec.long_name">AAC (Advanced Audio Coding)</property>
    <property name="meta.media.1.codec.bit_rate">192020</property>
    <property name="meta.attr.1.stream.vendor_id.markup">[0][0][0][0]</property>
    <property name="meta.attr.major_brand.markup">mp42</property>
    <property name="meta.attr.minor_version.markup">0</property>
    <property name="meta.attr.compatible_brands.markup">mp42isom</property>
    <property name="seekable">1</property>
    <property name="meta.media.sample_aspect_num">1</property>
    <property name="meta.media.sample_aspect_den">1</property>
    <property name="audio_index">1</property>
    <property name="video_index">0</property>
    <property name="creation_time">2025-03-18T22:33:29</property>
    <property name="vstream">0</property>
    <property name="meta.media.frame_rate_num">29355000</property>
    <property name="meta.media.frame_rate_den">492637</property>
    <property name="meta.media.colorspace">709</property>
    <property name="meta.media.color_trc">1</property>
    <property name="meta.media.has_b_frames">0</property>
    <property name="meta.media.width">848</property>
    <property name="meta.media.height">478</property>
    <property name="meta.media.aspect_ratio">1</property>
    <property name="meta.media.color_range">mpeg</property>
    <property name="astream">0</property>
    <property name="shotcut:hash">2af76f606785d17d78385d8f05d47513</property>
    <property name="xml">was here</property>
    <property name="meta.media.variable_frame_rate">1</property>
    <property name="meta.media.top_field_first">0</property>
    <property name="meta.media.progressive">1</property>
    <property name="shotcut:caption">43.mp4</property>
  </chain>
  <tractor id="tractor39" in="00:00:00.000" out="00:00:01.625">
    <property name="shotcut:transition">lumaMix</property>
    <track producer="chain40" in="00:01:01.875" out="00:01:03.500"/>
    <track producer="chain41" in="00:00:00.000" out="00:00:01.625"/>
    <transition id="transition78" out="00:00:01.625">
      <property name="a_track">0</property>
      <property name="b_track">1</property>
      <property name="factory">loader</property>
      <property name="mlt_service">luma</property>
      <property name="alpha_over">1</property>
      <property name="fix_background_alpha">1</property>
    </transition>
    <transition id="transition79" out="00:00:01.625">
      <property name="a_track">0</property>
      <property name="b_track">1</property>
      <property name="mlt_service">mix</property>
      <property name="start">-1</property>
      <property name="accepts_blanks">1</property>
    </transition>
  </tractor>
  <chain id="chain42" out="00:00:16.542">
    <property name="length">00:00:16.583</property>
    <property name="eof">pause</property>
    <property name="resource">D:/projects/unreal_engine_5/PlantsVsZombies/Main_menu_vids/44.mp4</property>
    <property name="mlt_service">avformat-novalidate</property>
    <property name="meta.media.nb_streams">2</property>
    <property name="meta.media.0.stream.type">video</property>
    <property name="meta.media.0.stream.frame_rate">26.9434</property>
    <property name="meta.media.0.stream.sample_aspect_ratio">0</property>
    <property name="meta.media.0.codec.width">848</property>
    <property name="meta.media.0.codec.height">478</property>
    <property name="meta.media.0.codec.rotate">0</property>
    <property name="meta.media.0.codec.pix_fmt">yuv420p</property>
    <property name="meta.media.0.codec.sample_aspect_ratio">0</property>
    <property name="meta.media.0.codec.colorspace">601</property>
    <property name="meta.media.0.codec.color_trc">6</property>
    <property name="meta.media.0.codec.name">h264</property>
    <property name="meta.media.0.codec.long_name">H.264 / AVC / MPEG-4 AVC / MPEG-4 part 10</property>
    <property name="meta.media.0.codec.bit_rate">1403347</property>
    <property name="meta.attr.0.stream.vendor_id.markup">[0][0][0][0]</property>
    <property name="meta.media.1.stream.type">audio</property>
    <property name="meta.media.1.codec.sample_fmt">fltp</property>
    <property name="meta.media.1.codec.sample_rate">48000</property>
    <property name="meta.media.1.codec.channels">2</property>
    <property name="meta.media.1.codec.name">aac</property>
    <property name="meta.media.1.codec.long_name">AAC (Advanced Audio Coding)</property>
    <property name="meta.media.1.codec.bit_rate">256034</property>
    <property name="meta.attr.1.stream.vendor_id.markup">[0][0][0][0]</property>
    <property name="meta.attr.major_brand.markup">mp42</property>
    <property name="meta.attr.minor_version.markup">0</property>
    <property name="meta.attr.compatible_brands.markup">mp42isom</property>
    <property name="seekable">1</property>
    <property name="meta.media.sample_aspect_num">1</property>
    <property name="meta.media.sample_aspect_den">1</property>
    <property name="audio_index">1</property>
    <property name="video_index">0</property>
    <property name="creation_time">2025-03-18T22:33:32</property>
    <property name="vstream">0</property>
    <property name="meta.media.frame_rate_num">3337500</property>
    <property name="meta.media.frame_rate_den">123871</property>
    <property name="meta.media.colorspace">601</property>
    <property name="meta.media.color_trc">6</property>
    <property name="meta.media.has_b_frames">0</property>
    <property name="meta.media.width">848</property>
    <property name="meta.media.height">478</property>
    <property name="meta.media.aspect_ratio">1</property>
    <property name="meta.media.color_range">mpeg</property>
    <property name="astream">0</property>
    <property name="shotcut:hash">21273950822057f61557cf28bfece5ed</property>
    <property name="xml">was here</property>
    <property name="meta.media.variable_frame_rate">1</property>
    <property name="meta.media.top_field_first">0</property>
    <property name="meta.media.progressive">1</property>
    <property name="shotcut:caption">44.mp4</property>
  </chain>
  <tractor id="tractor40" in="00:00:00.000" out="00:00:01.708">
    <property name="shotcut:transition">lumaMix</property>
    <track producer="chain41" in="00:00:31.083" out="00:00:32.792"/>
    <track producer="chain42" in="00:00:00.000" out="00:00:01.708"/>
    <transition id="transition80" out="00:00:01.708">
      <property name="a_track">0</property>
      <property name="b_track">1</property>
      <property name="factory">loader</property>
      <property name="mlt_service">luma</property>
      <property name="alpha_over">1</property>
      <property name="fix_background_alpha">1</property>
    </transition>
    <transition id="transition81" out="00:00:01.708">
      <property name="a_track">0</property>
      <property name="b_track">1</property>
      <property name="mlt_service">mix</property>
      <property name="start">-1</property>
      <property name="accepts_blanks">1</property>
    </transition>
  </tractor>
  <chain id="chain43" out="00:00:42.417">
    <property name="length">00:00:42.458</property>
    <property name="eof">pause</property>
    <property name="resource">D:/projects/unreal_engine_5/PlantsVsZombies/Main_menu_vids/46.mp4</property>
    <property name="mlt_service">avformat-novalidate</property>
    <property name="meta.media.nb_streams">2</property>
    <property name="meta.media.0.stream.type">video</property>
    <property name="meta.media.0.stream.frame_rate">23.3632</property>
    <property name="meta.media.0.stream.sample_aspect_ratio">0</property>
    <property name="meta.media.0.codec.width">848</property>
    <property name="meta.media.0.codec.height">478</property>
    <property name="meta.media.0.codec.rotate">0</property>
    <property name="meta.media.0.codec.pix_fmt">yuv420p</property>
    <property name="meta.media.0.codec.sample_aspect_ratio">0</property>
    <property name="meta.media.0.codec.colorspace">601</property>
    <property name="meta.media.0.codec.color_trc">6</property>
    <property name="meta.media.0.codec.name">h264</property>
    <property name="meta.media.0.codec.long_name">H.264 / AVC / MPEG-4 AVC / MPEG-4 part 10</property>
    <property name="meta.media.0.codec.bit_rate">1415031</property>
    <property name="meta.attr.0.stream.vendor_id.markup">[0][0][0][0]</property>
    <property name="meta.media.1.stream.type">audio</property>
    <property name="meta.media.1.codec.sample_fmt">fltp</property>
    <property name="meta.media.1.codec.sample_rate">48000</property>
    <property name="meta.media.1.codec.channels">2</property>
    <property name="meta.media.1.codec.name">aac</property>
    <property name="meta.media.1.codec.long_name">AAC (Advanced Audio Coding)</property>
    <property name="meta.media.1.codec.bit_rate">256043</property>
    <property name="meta.attr.1.stream.vendor_id.markup">[0][0][0][0]</property>
    <property name="meta.attr.major_brand.markup">mp42</property>
    <property name="meta.attr.minor_version.markup">0</property>
    <property name="meta.attr.compatible_brands.markup">mp42isom</property>
    <property name="seekable">1</property>
    <property name="meta.media.sample_aspect_num">1</property>
    <property name="meta.media.sample_aspect_den">1</property>
    <property name="audio_index">1</property>
    <property name="video_index">0</property>
    <property name="creation_time">2025-03-18T22:33:34</property>
    <property name="vstream">0</property>
    <property name="meta.media.frame_rate_num">5916000</property>
    <property name="meta.media.frame_rate_den">253219</property>
    <property name="meta.media.colorspace">601</property>
    <property name="meta.media.color_trc">6</property>
    <property name="meta.media.has_b_frames">0</property>
    <property name="meta.media.width">848</property>
    <property name="meta.media.height">478</property>
    <property name="meta.media.aspect_ratio">1</property>
    <property name="meta.media.color_range">mpeg</property>
    <property name="astream">0</property>
    <property name="shotcut:hash">31d3187c8d722fbb1ea8da7e3761c9a7</property>
    <property name="xml">was here</property>
    <property name="meta.media.variable_frame_rate">1</property>
    <property name="meta.media.top_field_first">0</property>
    <property name="meta.media.progressive">1</property>
    <property name="shotcut:caption">46.mp4</property>
  </chain>
  <tractor id="tractor41" in="00:00:00.000" out="00:00:01.875">
    <property name="shotcut:transition">lumaMix</property>
    <track producer="chain42" in="00:00:14.667" out="00:00:16.542"/>
    <track producer="chain43" in="00:00:00.000" out="00:00:01.875"/>
    <transition id="transition82" out="00:00:01.875">
      <property name="a_track">0</property>
      <property name="b_track">1</property>
      <property name="factory">loader</property>
      <property name="mlt_service">luma</property>
      <property name="alpha_over">1</property>
      <property name="fix_background_alpha">1</property>
    </transition>
    <transition id="transition83" out="00:00:01.875">
      <property name="a_track">0</property>
      <property name="b_track">1</property>
      <property name="mlt_service">mix</property>
      <property name="start">-1</property>
      <property name="accepts_blanks">1</property>
    </transition>
  </tractor>
  <chain id="chain44" out="00:00:38.292">
    <property name="length">00:00:38.333</property>
    <property name="eof">pause</property>
    <property name="resource">D:/projects/unreal_engine_5/PlantsVsZombies/Main_menu_vids/47.mp4</property>
    <property name="mlt_service">avformat-novalidate</property>
    <property name="meta.media.nb_streams">2</property>
    <property name="meta.media.0.stream.type">video</property>
    <property name="meta.media.0.stream.frame_rate">27.767</property>
    <property name="meta.media.0.stream.sample_aspect_ratio">0</property>
    <property name="meta.media.0.codec.width">848</property>
    <property name="meta.media.0.codec.height">478</property>
    <property name="meta.media.0.codec.rotate">0</property>
    <property name="meta.media.0.codec.pix_fmt">yuv420p</property>
    <property name="meta.media.0.codec.sample_aspect_ratio">0</property>
    <property name="meta.media.0.codec.colorspace">601</property>
    <property name="meta.media.0.codec.color_trc">6</property>
    <property name="meta.media.0.codec.name">h264</property>
    <property name="meta.media.0.codec.long_name">H.264 / AVC / MPEG-4 AVC / MPEG-4 part 10</property>
    <property name="meta.media.0.codec.bit_rate">1333601</property>
    <property name="meta.attr.0.stream.vendor_id.markup">[0][0][0][0]</property>
    <property name="meta.media.1.stream.type">audio</property>
    <property name="meta.media.1.codec.sample_fmt">fltp</property>
    <property name="meta.media.1.codec.sample_rate">48000</property>
    <property name="meta.media.1.codec.channels">2</property>
    <property name="meta.media.1.codec.name">aac</property>
    <property name="meta.media.1.codec.long_name">AAC (Advanced Audio Coding)</property>
    <property name="meta.media.1.codec.bit_rate">256019</property>
    <property name="meta.attr.1.stream.vendor_id.markup">[0][0][0][0]</property>
    <property name="meta.attr.major_brand.markup">mp42</property>
    <property name="meta.attr.minor_version.markup">0</property>
    <property name="meta.attr.compatible_brands.markup">mp42isom</property>
    <property name="seekable">1</property>
    <property name="meta.media.sample_aspect_num">1</property>
    <property name="meta.media.sample_aspect_den">1</property>
    <property name="audio_index">1</property>
    <property name="video_index">0</property>
    <property name="creation_time">2025-03-18T22:33:33</property>
    <property name="vstream">0</property>
    <property name="meta.media.frame_rate_num">15900000</property>
    <property name="meta.media.frame_rate_den">572623</property>
    <property name="meta.media.colorspace">601</property>
    <property name="meta.media.color_trc">6</property>
    <property name="meta.media.has_b_frames">0</property>
    <property name="meta.media.width">848</property>
    <property name="meta.media.height">478</property>
    <property name="meta.media.aspect_ratio">1</property>
    <property name="meta.media.color_range">mpeg</property>
    <property name="astream">0</property>
    <property name="shotcut:hash">4ff9fd8cc913e54b7c849cbec6920591</property>
    <property name="xml">was here</property>
    <property name="meta.media.top_field_first">0</property>
    <property name="meta.media.progressive">1</property>
    <property name="shotcut:caption">47.mp4</property>
  </chain>
  <tractor id="tractor42" in="00:00:00.000" out="00:00:01.708">
    <property name="shotcut:transition">lumaMix</property>
    <track producer="chain43" in="00:00:40.708" out="00:00:42.417"/>
    <track producer="chain44" in="00:00:00.000" out="00:00:01.708"/>
    <transition id="transition84" out="00:00:01.708">
      <property name="a_track">0</property>
      <property name="b_track">1</property>
      <property name="factory">loader</property>
      <property name="mlt_service">luma</property>
      <property name="alpha_over">1</property>
      <property name="fix_background_alpha">1</property>
    </transition>
    <transition id="transition85" out="00:00:01.708">
      <property name="a_track">0</property>
      <property name="b_track">1</property>
      <property name="mlt_service">mix</property>
      <property name="start">-1</property>
      <property name="accepts_blanks">1</property>
    </transition>
  </tractor>
  <chain id="chain45" out="00:00:11.375">
    <property name="length">00:00:11.417</property>
    <property name="eof">pause</property>
    <property name="resource">D:/projects/unreal_engine_5/PlantsVsZombies/Main_menu_vids/48.mp4</property>
    <property name="mlt_service">avformat-novalidate</property>
    <property name="meta.media.nb_streams">2</property>
    <property name="meta.media.0.stream.type">video</property>
    <property name="meta.media.0.stream.frame_rate">24.0034</property>
    <property name="meta.media.0.stream.sample_aspect_ratio">0</property>
    <property name="meta.media.0.codec.width">848</property>
    <property name="meta.media.0.codec.height">480</property>
    <property name="meta.media.0.codec.rotate">0</property>
    <property name="meta.media.0.codec.pix_fmt">yuv420p</property>
    <property name="meta.media.0.codec.sample_aspect_ratio">0</property>
    <property name="meta.media.0.codec.colorspace">601</property>
    <property name="meta.media.0.codec.color_trc">6</property>
    <property name="meta.media.0.codec.name">h264</property>
    <property name="meta.media.0.codec.long_name">H.264 / AVC / MPEG-4 AVC / MPEG-4 part 10</property>
    <property name="meta.media.0.codec.bit_rate">1976924</property>
    <property name="meta.attr.0.stream.vendor_id.markup">[0][0][0][0]</property>
    <property name="meta.media.1.stream.type">audio</property>
    <property name="meta.media.1.codec.sample_fmt">fltp</property>
    <property name="meta.media.1.codec.sample_rate">48000</property>
    <property name="meta.media.1.codec.channels">2</property>
    <property name="meta.media.1.codec.name">aac</property>
    <property name="meta.media.1.codec.long_name">AAC (Advanced Audio Coding)</property>
    <property name="meta.media.1.codec.bit_rate">256081</property>
    <property name="meta.attr.1.stream.vendor_id.markup">[0][0][0][0]</property>
    <property name="meta.attr.major_brand.markup">mp42</property>
    <property name="meta.attr.minor_version.markup">0</property>
    <property name="meta.attr.compatible_brands.markup">mp42isom</property>
    <property name="seekable">1</property>
    <property name="meta.media.sample_aspect_num">1</property>
    <property name="meta.media.sample_aspect_den">1</property>
    <property name="audio_index">1</property>
    <property name="video_index">0</property>
    <property name="creation_time">2025-03-18T22:33:34</property>
    <property name="vstream">0</property>
    <property name="meta.media.frame_rate_num">8220000</property>
    <property name="meta.media.frame_rate_den">342451</property>
    <property name="meta.media.colorspace">601</property>
    <property name="meta.media.color_trc">6</property>
    <property name="meta.media.has_b_frames">0</property>
    <property name="meta.media.width">848</property>
    <property name="meta.media.height">480</property>
    <property name="meta.media.aspect_ratio">1</property>
    <property name="meta.media.color_range">mpeg</property>
    <property name="astream">0</property>
    <property name="shotcut:hash">3b3aa6db6a0f9d3d4c616d7b1e7398db</property>
    <property name="xml">was here</property>
    <property name="meta.media.variable_frame_rate">1</property>
    <property name="meta.media.top_field_first">0</property>
    <property name="meta.media.progressive">1</property>
    <property name="shotcut:caption">48.mp4</property>
  </chain>
  <tractor id="tractor43" in="00:00:00.000" out="00:00:01.458">
    <property name="shotcut:transition">lumaMix</property>
    <track producer="chain44" in="00:00:36.833" out="00:00:38.292"/>
    <track producer="chain45" in="00:00:00.000" out="00:00:01.458"/>
    <transition id="transition86" out="00:00:01.458">
      <property name="a_track">0</property>
      <property name="b_track">1</property>
      <property name="factory">loader</property>
      <property name="mlt_service">luma</property>
      <property name="alpha_over">1</property>
      <property name="fix_background_alpha">1</property>
    </transition>
    <transition id="transition87" out="00:00:01.458">
      <property name="a_track">0</property>
      <property name="b_track">1</property>
      <property name="mlt_service">mix</property>
      <property name="start">-1</property>
      <property name="accepts_blanks">1</property>
    </transition>
  </tractor>
  <playlist id="playlist0">
    <property name="shotcut:video">1</property>
    <property name="shotcut:name">V1</property>
    <property name="shotcut:lock">0</property>
    <entry producer="chain0" in="00:00:00.000" out="00:00:15.333"/>
    <entry producer="tractor0" in="00:00:00.000" out="00:00:00.375"/>
    <entry producer="chain1" in="00:00:00.417" out="00:00:04.500"/>
    <entry producer="tractor1" in="00:00:00.000" out="00:00:00.375"/>
    <entry producer="chain2" in="00:00:00.417" out="00:00:17.250"/>
    <entry producer="tractor2" in="00:00:00.000" out="00:00:00.458"/>
    <entry producer="chain3" in="00:00:00.500" out="00:00:26.375"/>
    <entry producer="tractor3" in="00:00:00.000" out="00:00:00.542"/>
    <entry producer="chain4" in="00:00:00.583" out="00:00:26.833"/>
    <entry producer="tractor4" in="00:00:00.000" out="00:00:00.458"/>
    <entry producer="chain5" in="00:00:00.500" out="00:00:14.708"/>
    <entry producer="tractor5" in="00:00:00.000" out="00:00:00.500"/>
    <entry producer="chain6" in="00:00:00.542" out="00:00:14.417"/>
    <entry producer="tractor6" in="00:00:00.000" out="00:00:00.417"/>
    <entry producer="chain7" in="00:00:00.458" out="00:01:12.833"/>
    <entry producer="tractor7" in="00:00:00.000" out="00:00:00.458"/>
    <entry producer="chain8" in="00:00:00.500" out="00:00:12.000"/>
    <entry producer="tractor8" in="00:00:00.000" out="00:00:00.458"/>
    <entry producer="chain9" in="00:00:00.500" out="00:00:07.958"/>
    <entry producer="tractor9" in="00:00:00.000" out="00:00:00.458"/>
    <entry producer="chain10" in="00:00:00.500" out="00:00:09.292"/>
    <entry producer="tractor10" in="00:00:00.000" out="00:00:00.417"/>
    <entry producer="chain11" in="00:00:00.458" out="00:00:19.292"/>
    <entry producer="tractor11" in="00:00:00.000" out="00:00:00.500"/>
    <entry producer="chain12" in="00:00:00.542" out="00:00:13.708"/>
    <entry producer="tractor12" in="00:00:00.000" out="00:00:00.458"/>
    <entry producer="chain13" in="00:00:00.500" out="00:03:18.792"/>
    <entry producer="tractor13" in="00:00:00.000" out="00:00:00.417"/>
    <entry producer="chain14" in="00:00:00.458" out="00:00:05.792"/>
    <entry producer="tractor14" in="00:00:00.000" out="00:00:00.333"/>
    <entry producer="chain15" in="00:00:00.375" out="00:00:12.042"/>
    <entry producer="tractor15" in="00:00:00.000" out="00:00:00.708"/>
    <entry producer="chain16" in="00:00:00.750" out="00:00:57.833"/>
    <entry producer="tractor16" in="00:00:00.000" out="00:00:00.833"/>
    <entry producer="chain17" in="00:00:00.875" out="00:00:21.083"/>
    <entry producer="tractor17" in="00:00:00.000" out="00:00:00.792"/>
    <entry producer="chain18" in="00:00:00.833" out="00:00:04.625"/>
    <entry producer="tractor18" in="00:00:00.000" out="00:00:00.667"/>
    <entry producer="chain19" in="00:00:00.708" out="00:00:12.708"/>
    <entry producer="tractor19" in="00:00:00.000" out="00:00:00.750"/>
    <entry producer="chain20" in="00:00:00.792" out="00:00:05.792"/>
    <entry producer="tractor20" in="00:00:00.000" out="00:00:00.625"/>
    <entry producer="chain21" in="00:00:00.667" out="00:00:04.125"/>
    <entry producer="tractor21" in="00:00:00.000" out="00:00:00.708"/>
    <entry producer="chain22" in="00:00:00.750" out="00:00:16.542"/>
    <entry producer="tractor22" in="00:00:00.000" out="00:00:00.875"/>
    <entry producer="chain23" in="00:00:00.917" out="00:00:21.208"/>
    <entry producer="tractor23" in="00:00:00.000" out="00:00:00.917"/>
    <entry producer="chain24" in="00:00:00.958" out="00:00:16.000"/>
    <entry producer="tractor24" in="00:00:00.000" out="00:00:00.917"/>
    <entry producer="chain25" in="00:00:00.958" out="00:00:24.125"/>
    <entry producer="tractor25" in="00:00:00.000" out="00:00:01.500"/>
    <entry producer="chain26" in="00:00:01.542" out="00:00:11.125"/>
    <entry producer="tractor26" in="00:00:00.000" out="00:00:01.500"/>
    <entry producer="chain27" in="00:00:01.542" out="00:00:07.833"/>
    <entry producer="tractor27" in="00:00:00.000" out="00:00:01.292"/>
    <entry producer="chain28" in="00:00:01.333" out="00:00:28.167"/>
    <entry producer="tractor28" in="00:00:00.000" out="00:00:01.500"/>
    <entry producer="chain29" in="00:00:01.542" out="00:00:15.917"/>
    <entry producer="tractor29" in="00:00:00.000" out="00:00:01.167"/>
    <entry producer="chain30" in="00:00:01.208" out="00:00:05.333"/>
    <entry producer="tractor30" in="00:00:00.000" out="00:00:01.208"/>
    <entry producer="chain31" in="00:00:01.250" out="00:00:33.708"/>
    <entry producer="tractor31" in="00:00:00.000" out="00:00:01.708"/>
    <entry producer="chain32" in="00:00:01.750" out="00:00:43.542"/>
    <entry producer="tractor32" in="00:00:00.000" out="00:00:01.958"/>
    <entry producer="chain33" in="00:00:02.000" out="00:00:24.833"/>
    <entry producer="tractor33" in="00:00:00.000" out="00:00:01.458"/>
    <entry producer="chain34" in="00:00:01.500" out="00:00:16.875"/>
    <entry producer="tractor34" in="00:00:00.000" out="00:00:01.625"/>
    <entry producer="chain35" in="00:00:01.667" out="00:00:56.208"/>
    <entry producer="tractor35" in="00:00:00.000" out="00:00:01.792"/>
    <entry producer="chain36" in="00:00:01.833" out="00:00:17.792"/>
    <entry producer="tractor36" in="00:00:00.000" out="00:00:01.750"/>
    <entry producer="chain37" in="00:00:01.792" out="00:01:12.125"/>
    <entry producer="tractor37" in="00:00:00.000" out="00:00:02.542"/>
    <entry producer="chain38" in="00:00:02.583" out="00:00:21.417"/>
    <entry producer="chain39" in="00:00:55.500" out="00:01:03.000"/>
    <entry producer="tractor38" in="00:00:00.000" out="00:00:01.583"/>
    <entry producer="chain40" in="00:00:01.625" out="00:01:01.833"/>
    <entry producer="tractor39" in="00:00:00.000" out="00:00:01.625"/>
    <entry producer="chain41" in="00:00:01.667" out="00:00:31.042"/>
    <entry producer="tractor40" in="00:00:00.000" out="00:00:01.708"/>
    <entry producer="chain42" in="00:00:01.750" out="00:00:14.625"/>
    <entry producer="tractor41" in="00:00:00.000" out="00:00:01.875"/>
    <entry producer="chain43" in="00:00:01.917" out="00:00:40.667"/>
    <entry producer="tractor42" in="00:00:00.000" out="00:00:01.708"/>
    <entry producer="chain44" in="00:00:01.750" out="00:00:36.792"/>
    <entry producer="tractor43" in="00:00:00.000" out="00:00:01.458"/>
    <entry producer="chain45" in="00:00:01.500" out="00:00:11.375"/>
  </playlist>
  <playlist id="playlist2">
    <property name="shotcut:audio">1</property>
    <property name="shotcut:name">A1</property>
    <blank length="00:00:00.042"/>
  </playlist>
  <tractor id="tractor44" title="Shotcut version 24.01.28" in="00:00:00.000" out="00:20:15.750">
    <property name="shotcut">1</property>
    <property name="shotcut:projectAudioChannels">2</property>
    <property name="shotcut:projectFolder">1</property>
    <property name="shotcut:skipConvert">0</property>
    <property name="shotcut:scaleFactor">0.691472</property>
    <track producer="background"/>
    <track producer="playlist0"/>
    <track producer="playlist2" hide="video"/>
    <transition id="transition88">
      <property name="a_track">0</property>
      <property name="b_track">1</property>
      <property name="mlt_service">mix</property>
      <property name="always_active">1</property>
      <property name="sum">1</property>
    </transition>
    <transition id="transition89">
      <property name="a_track">0</property>
      <property name="b_track">1</property>
      <property name="version">0.1</property>
      <property name="mlt_service">frei0r.cairoblend</property>
      <property name="threads">0</property>
      <property name="disable">1</property>
    </transition>
    <transition id="transition90">
      <property name="a_track">0</property>
      <property name="b_track">2</property>
      <property name="mlt_service">mix</property>
      <property name="always_active">1</property>
      <property name="sum">1</property>
    </transition>
  </tractor>
</mlt>
